<svg width="256" height="239" viewBox="0 0 256 239" fill="none" xmlns="http://www.w3.org/2000/svg">
<rect y="0.882622" width="256" height="238" rx="20" fill="#C4C4C4" fill-opacity="0.4"/>
<rect y="0.882622" width="256" height="238" rx="20" fill="url(#paint0_linear_1_370)"/>
<rect x="85" y="197.883" width="28" height="21" rx="5" fill="url(#paint1_linear_1_370)"/>
<path d="M89.77 211.883H90.68V206.713L92.99 211.883H93.63L95.93 206.723V211.883H96.84V204.963H95.87L93.31 210.683L90.75 204.963H89.77V211.883ZM98.0433 209.123C98.0433 210.823 99.1733 211.973 100.633 211.973C101.643 211.973 102.353 211.453 102.683 210.863V211.883H103.603V206.403H102.683V207.403C102.363 206.833 101.663 206.313 100.643 206.313C99.1733 206.313 98.0433 207.413 98.0433 209.123ZM102.683 209.133C102.683 210.423 101.823 211.173 100.823 211.173C99.8233 211.173 98.9733 210.413 98.9733 209.123C98.9733 207.833 99.8233 207.103 100.823 207.103C101.823 207.103 102.683 207.863 102.683 209.133ZM106.051 208.903C106.051 207.633 106.711 207.243 107.581 207.243H107.821V206.303C106.951 206.303 106.361 206.683 106.051 207.293V206.403H105.141V211.883H106.051V208.903Z" fill="#14101D"/>
<path d="M34.16 204.833V210.073C34.16 210.653 33.9933 211.113 33.66 211.453C33.3333 211.786 32.8733 211.953 32.28 211.953C31.64 211.953 31.1367 211.766 30.77 211.393C30.41 211.013 30.23 210.483 30.23 209.803H31.14C31.14 210.209 31.23 210.533 31.41 210.773C31.59 211.006 31.8667 211.123 32.24 211.123C32.5933 211.123 32.85 211.023 33.01 210.823C33.17 210.623 33.25 210.373 33.25 210.073V204.833H34.16ZM37.8238 206.323C38.3571 206.323 38.8071 206.456 39.1738 206.723C39.5471 206.989 39.8071 207.346 39.9538 207.793V206.393H40.8638V211.883H39.9538V210.483C39.8071 210.929 39.5471 211.286 39.1738 211.553C38.8071 211.819 38.3571 211.953 37.8238 211.953C37.3371 211.953 36.9038 211.839 36.5238 211.613C36.1438 211.386 35.8438 211.063 35.6238 210.643C35.4104 210.216 35.3038 209.716 35.3038 209.143C35.3038 208.569 35.4104 208.069 35.6238 207.643C35.8438 207.216 36.1438 206.889 36.5238 206.663C36.9038 206.436 37.3371 206.323 37.8238 206.323ZM38.0838 207.133C37.5238 207.133 37.0738 207.313 36.7338 207.673C36.4004 208.026 36.2338 208.516 36.2338 209.143C36.2338 209.769 36.4004 210.263 36.7338 210.623C37.0738 210.976 37.5238 211.153 38.0838 211.153C38.4438 211.153 38.7638 211.069 39.0438 210.903C39.3304 210.736 39.5538 210.503 39.7138 210.203C39.8738 209.896 39.9538 209.543 39.9538 209.143C39.9538 208.743 39.8738 208.389 39.7138 208.083C39.5538 207.776 39.3304 207.543 39.0438 207.383C38.7638 207.216 38.4438 207.133 38.0838 207.133ZM45.202 206.303C45.842 206.303 46.3587 206.509 46.752 206.923C47.1454 207.329 47.342 207.919 47.342 208.693V211.883H46.432V208.773C46.432 208.226 46.292 207.806 46.012 207.513C45.732 207.219 45.352 207.073 44.872 207.073C44.372 207.073 43.972 207.236 43.672 207.563C43.372 207.883 43.222 208.353 43.222 208.973V211.883H42.312V206.393H43.222V207.693C43.362 207.246 43.6087 206.903 43.962 206.663C44.322 206.423 44.7354 206.303 45.202 206.303Z" fill="white" fill-opacity="0.7"/>
<path d="M64.72 204.833V205.573H61.64V208.013H64.25V208.723H61.64V211.883H60.73V204.833H64.72ZM70.8484 208.833C70.8484 209.026 70.835 209.193 70.8084 209.333H66.4184C66.4384 209.959 66.615 210.429 66.9484 210.743C67.2884 211.056 67.7017 211.213 68.1884 211.213C68.6284 211.213 68.995 211.103 69.2884 210.883C69.5884 210.656 69.7717 210.356 69.8384 209.983H70.8084C70.7417 210.363 70.5917 210.703 70.3584 211.003C70.1317 211.303 69.835 211.536 69.4684 211.703C69.1017 211.869 68.6884 211.953 68.2284 211.953C67.7017 211.953 67.235 211.839 66.8284 211.613C66.4217 211.386 66.1017 211.063 65.8684 210.643C65.6417 210.216 65.5284 209.716 65.5284 209.143C65.5284 208.569 65.6417 208.069 65.8684 207.643C66.1017 207.216 66.4217 206.889 66.8284 206.663C67.235 206.436 67.7017 206.323 68.2284 206.323C68.7617 206.323 69.225 206.436 69.6184 206.663C70.0184 206.889 70.3217 207.193 70.5284 207.573C70.7417 207.953 70.8484 208.373 70.8484 208.833ZM69.9284 208.893C69.9484 208.486 69.8817 208.146 69.7284 207.873C69.575 207.599 69.365 207.396 69.0984 207.263C68.8317 207.129 68.5417 207.063 68.2284 207.063C67.7284 207.063 67.3084 207.219 66.9684 207.533C66.6284 207.839 66.445 208.293 66.4184 208.893H69.9284ZM75.0686 206.323C75.5553 206.323 75.9886 206.436 76.3686 206.663C76.7486 206.889 77.0453 207.216 77.2586 207.643C77.4786 208.069 77.5886 208.569 77.5886 209.143C77.5886 209.716 77.4786 210.216 77.2586 210.643C77.0453 211.063 76.7486 211.386 76.3686 211.613C75.9886 211.839 75.5553 211.953 75.0686 211.953C74.5353 211.953 74.0819 211.819 73.7086 211.553C73.3419 211.279 73.0886 210.923 72.9486 210.483V211.883H72.0386V204.483H72.9486V207.793C73.0886 207.353 73.3419 206.999 73.7086 206.733C74.0819 206.459 74.5353 206.323 75.0686 206.323ZM74.8086 207.133C74.4553 207.133 74.1353 207.216 73.8486 207.383C73.5619 207.543 73.3386 207.776 73.1786 208.083C73.0186 208.389 72.9386 208.743 72.9386 209.143C72.9386 209.543 73.0186 209.896 73.1786 210.203C73.3386 210.503 73.5619 210.736 73.8486 210.903C74.1353 211.069 74.4553 211.153 74.8086 211.153C75.3753 211.153 75.8253 210.976 76.1586 210.623C76.4986 210.263 76.6686 209.769 76.6686 209.143C76.6686 208.516 76.4986 208.026 76.1586 207.673C75.8253 207.313 75.3753 207.133 74.8086 207.133Z" fill="white" fill-opacity="0.7"/>
<path d="M124.86 210.253H121.76L121.17 211.883H120.19L122.8 204.963H123.83L126.43 211.883H125.45L124.86 210.253ZM124.6 209.543L123.31 205.983L122.02 209.543H124.6ZM130.381 206.323C130.868 206.323 131.301 206.436 131.681 206.663C132.061 206.889 132.358 207.216 132.571 207.643C132.791 208.069 132.901 208.569 132.901 209.143C132.901 209.716 132.791 210.216 132.571 210.643C132.358 211.063 132.061 211.386 131.681 211.613C131.301 211.839 130.868 211.953 130.381 211.953C129.848 211.953 129.394 211.819 129.021 211.553C128.654 211.279 128.401 210.923 128.261 210.483V214.483H127.351V206.393H128.261V207.793C128.401 207.353 128.654 206.999 129.021 206.733C129.394 206.459 129.848 206.323 130.381 206.323ZM130.121 207.133C129.768 207.133 129.448 207.216 129.161 207.383C128.874 207.543 128.651 207.776 128.491 208.083C128.331 208.389 128.251 208.743 128.251 209.143C128.251 209.543 128.331 209.896 128.491 210.203C128.651 210.503 128.874 210.736 129.161 210.903C129.448 211.069 129.768 211.153 130.121 211.153C130.688 211.153 131.138 210.976 131.471 210.623C131.811 210.263 131.981 209.769 131.981 209.143C131.981 208.516 131.811 208.026 131.471 207.673C131.138 207.313 130.688 207.133 130.121 207.133ZM134.999 207.503C135.179 207.123 135.443 206.829 135.789 206.623C136.136 206.409 136.549 206.303 137.029 206.303V207.293H136.749C136.236 207.293 135.816 207.426 135.489 207.693C135.163 207.953 134.999 208.386 134.999 208.993V211.883H134.089V206.393H134.999V207.503Z" fill="white" fill-opacity="0.7"/>
<path d="M155.79 204.953V211.883H154.88V206.353L152.67 211.883H151.86L149.64 206.373V211.883H148.73V204.953H149.82L152.28 210.773L154.7 204.953H155.79ZM159.496 206.323C160.029 206.323 160.479 206.456 160.846 206.723C161.219 206.989 161.479 207.346 161.626 207.793V206.393H162.536V211.883H161.626V210.483C161.479 210.929 161.219 211.286 160.846 211.553C160.479 211.819 160.029 211.953 159.496 211.953C159.009 211.953 158.576 211.839 158.196 211.613C157.816 211.386 157.516 211.063 157.296 210.643C157.082 210.216 156.976 209.716 156.976 209.143C156.976 208.569 157.082 208.069 157.296 207.643C157.516 207.216 157.816 206.889 158.196 206.663C158.576 206.436 159.009 206.323 159.496 206.323ZM159.756 207.133C159.196 207.133 158.746 207.313 158.406 207.673C158.072 208.026 157.906 208.516 157.906 209.143C157.906 209.769 158.072 210.263 158.406 210.623C158.746 210.976 159.196 211.153 159.756 211.153C160.116 211.153 160.436 211.069 160.716 210.903C161.002 210.736 161.226 210.503 161.386 210.203C161.546 209.896 161.626 209.543 161.626 209.143C161.626 208.743 161.546 208.389 161.386 208.083C161.226 207.776 161.002 207.543 160.716 207.383C160.436 207.216 160.116 207.133 159.756 207.133ZM164.364 206.393L166.144 210.713L167.794 206.393H168.804L165.544 214.483H164.514L165.654 211.793L163.344 206.393H164.364Z" fill="white" fill-opacity="0.7"/>
<path d="M185.16 204.833V210.073C185.16 210.653 184.993 211.113 184.66 211.453C184.333 211.786 183.873 211.953 183.28 211.953C182.64 211.953 182.137 211.766 181.77 211.393C181.41 211.013 181.23 210.483 181.23 209.803H182.14C182.14 210.209 182.23 210.533 182.41 210.773C182.59 211.006 182.867 211.123 183.24 211.123C183.593 211.123 183.85 211.023 184.01 210.823C184.17 210.623 184.25 210.373 184.25 210.073V204.833H185.16ZM191.454 206.393V211.883H190.544V210.593C190.404 211.039 190.154 211.383 189.794 211.623C189.44 211.856 189.027 211.973 188.554 211.973C187.92 211.973 187.407 211.769 187.014 211.363C186.62 210.949 186.424 210.359 186.424 209.593V206.393H187.334V209.503C187.334 210.049 187.474 210.473 187.754 210.773C188.034 211.066 188.414 211.213 188.894 211.213C189.394 211.213 189.794 211.053 190.094 210.733C190.394 210.406 190.544 209.933 190.544 209.313V206.393H191.454ZM195.802 206.303C196.442 206.303 196.958 206.509 197.352 206.923C197.745 207.329 197.942 207.919 197.942 208.693V211.883H197.032V208.773C197.032 208.226 196.892 207.806 196.612 207.513C196.332 207.219 195.952 207.073 195.472 207.073C194.972 207.073 194.572 207.236 194.272 207.563C193.972 207.883 193.822 208.353 193.822 208.973V211.883H192.912V206.393H193.822V207.693C193.962 207.246 194.208 206.903 194.562 206.663C194.922 206.423 195.335 206.303 195.802 206.303Z" fill="white" fill-opacity="0.7"/>
<path d="M216.16 204.833V210.073C216.16 210.653 215.993 211.113 215.66 211.453C215.333 211.786 214.873 211.953 214.28 211.953C213.64 211.953 213.137 211.766 212.77 211.393C212.41 211.013 212.23 210.483 212.23 209.803H213.14C213.14 210.209 213.23 210.533 213.41 210.773C213.59 211.006 213.867 211.123 214.24 211.123C214.593 211.123 214.85 211.023 215.01 210.823C215.17 210.623 215.25 210.373 215.25 210.073V204.833H216.16ZM222.454 206.393V211.883H221.544V210.593C221.404 211.039 221.154 211.383 220.794 211.623C220.44 211.856 220.027 211.973 219.554 211.973C218.92 211.973 218.407 211.769 218.014 211.363C217.62 210.949 217.424 210.359 217.424 209.593V206.393H218.334V209.503C218.334 210.049 218.474 210.473 218.754 210.773C219.034 211.066 219.414 211.213 219.894 211.213C220.394 211.213 220.794 211.053 221.094 210.733C221.394 210.406 221.544 209.933 221.544 209.313V206.393H222.454ZM224.822 204.483V211.883H223.912V204.483H224.822Z" fill="white" fill-opacity="0.7"/>
<path d="M20 111.29C23.7962 111.29 26.073 110.373 29.7207 111.29C36.0933 112.893 35.6016 119.556 41.7287 121.771C47.3029 123.786 51.3287 120.944 57.1676 122.27C70.3128 125.256 69.0392 140.773 82.3271 143.231C87.57 144.201 90.8512 142.096 96.0505 143.231C107.08 145.637 105.761 164.091 116.636 161.197C121.78 159.828 121.884 154.839 126.928 153.212C139.373 149.198 138.656 176.521 151.516 173.674C159.017 172.014 158.459 163.805 165.811 161.697C171.115 160.175 174.572 162.333 180.106 161.697C205.469 158.779 201.491 123.518 226.995 121.771C230.111 121.557 235 121.771 235 121.771" stroke="url(#paint2_linear_1_370)" stroke-opacity="0.2"/>
<path d="M96 142.94C107.022 145.37 105.704 163.998 116.571 161.077C121.712 159.695 121.816 154.659 126.857 153.016C139.294 148.964 138.577 176.546 151.429 173.672C158.925 171.996 158.367 163.709 165.714 161.581C171.014 160.045 174.469 162.224 180 161.581C193.164 160.051 198.419 149.713 204 139.883" stroke="url(#paint3_linear_1_370)" stroke-width="2" stroke-linecap="round"/>
<path d="M23.996 70.1066C24.564 70.2826 25.02 70.4506 25.364 70.6106C25.716 70.7706 26.012 71.0146 26.252 71.3426C26.5 71.6626 26.624 72.0906 26.624 72.6266C26.624 73.0426 26.516 73.4306 26.3 73.7906C26.092 74.1426 25.776 74.4266 25.352 74.6426C24.928 74.8586 24.408 74.9666 23.792 74.9666H23.768V75.9266H23.36V74.9426C22.568 74.8786 21.92 74.6306 21.416 74.1986C20.912 73.7586 20.632 73.2026 20.576 72.5306H22.04C22.072 72.8426 22.2 73.1266 22.424 73.3826C22.656 73.6386 22.968 73.7986 23.36 73.8626V71.1386C22.704 70.9386 22.204 70.7666 21.86 70.6226C21.516 70.4706 21.212 70.2306 20.948 69.9026C20.684 69.5746 20.552 69.1346 20.552 68.5826C20.552 68.1346 20.668 67.7386 20.9 67.3946C21.14 67.0506 21.472 66.7826 21.896 66.5906C22.32 66.3986 22.808 66.3026 23.36 66.3026V65.2826H23.768V66.3146C24.552 66.3706 25.176 66.6026 25.64 67.0106C26.104 67.4186 26.372 67.9346 26.444 68.5586H24.968C24.92 68.2706 24.792 68.0226 24.584 67.8146C24.384 67.5986 24.112 67.4586 23.768 67.3946V70.0346L23.996 70.1066ZM22.016 68.5346C22.016 68.8866 22.132 69.1666 22.364 69.3746C22.596 69.5746 22.928 69.7506 23.36 69.9026V67.3586C22.944 67.3666 22.616 67.4746 22.376 67.6826C22.136 67.8826 22.016 68.1666 22.016 68.5346ZM23.768 73.8986C24.208 73.8986 24.548 73.7826 24.788 73.5506C25.036 73.3186 25.16 73.0226 25.16 72.6626C25.16 72.2946 25.04 72.0106 24.8 71.8106C24.56 71.6026 24.216 71.4226 23.768 71.2706V73.8986ZM30.4527 73.8146C31.7487 72.9266 32.7847 72.0586 33.5607 71.2106C34.3447 70.3546 34.7367 69.5626 34.7367 68.8346C34.7367 68.4026 34.6287 68.0586 34.4127 67.8026C34.2047 67.5466 33.8647 67.4186 33.3927 67.4186C32.9047 67.4186 32.5367 67.5786 32.2887 67.8986C32.0407 68.2106 31.9007 68.6586 31.8687 69.2426H30.5367C30.5927 68.2746 30.8887 67.5346 31.4247 67.0226C31.9687 66.5106 32.6607 66.2546 33.5007 66.2546C34.3247 66.2546 34.9687 66.4746 35.4327 66.9146C35.9047 67.3466 36.1407 67.9466 36.1407 68.7146C36.1407 69.3306 35.9487 69.9546 35.5647 70.5866C35.1887 71.2186 34.7087 71.8026 34.1247 72.3386C33.5407 72.8666 32.9367 73.3226 32.3127 73.7066H36.3327V74.8226H30.4527V73.8146ZM38.4493 73.9466C38.5933 74.3146 38.6653 74.6946 38.6653 75.0866C38.6653 75.5346 38.5493 75.8986 38.3173 76.1786C38.0853 76.4666 37.7333 76.6106 37.2613 76.6106V76.0586C37.4613 76.0586 37.6093 76.0066 37.7053 75.9026C37.8013 75.7986 37.8493 75.6226 37.8493 75.3746V75.2666H37.1533V73.9466H38.4493ZM42.7016 66.1466C43.2616 66.1466 43.7416 66.2466 44.1416 66.4466C44.5416 66.6386 44.8416 66.9066 45.0416 67.2506C45.2496 67.5946 45.3536 67.9786 45.3536 68.4026C45.3536 68.9386 45.2016 69.3866 44.8976 69.7466C44.6016 70.0986 44.1816 70.3106 43.6376 70.3826V70.4426C44.2216 70.6106 44.6776 70.8626 45.0056 71.1986C45.3416 71.5266 45.5096 71.9826 45.5096 72.5666C45.5096 73.2786 45.2736 73.8586 44.8016 74.3066C44.3296 74.7466 43.6536 74.9666 42.7736 74.9666C41.8696 74.9666 41.1416 74.7386 40.5896 74.2826C40.0376 73.8186 39.7216 73.1346 39.6416 72.2306H40.9976C41.0456 72.7106 41.2176 73.0946 41.5136 73.3826C41.8096 73.6626 42.2096 73.8026 42.7136 73.8026C43.1856 73.8026 43.5456 73.6786 43.7936 73.4306C44.0496 73.1826 44.1776 72.8626 44.1776 72.4706C44.1776 71.9986 43.9936 71.6386 43.6256 71.3906C43.2656 71.1426 42.7416 71.0186 42.0536 71.0186H41.7296V69.8906H42.0536C43.3576 69.9066 44.0096 69.4626 44.0096 68.5586C44.0096 68.1666 43.8896 67.8586 43.6496 67.6346C43.4096 67.4106 43.0816 67.2986 42.6656 67.2986C42.2496 67.2986 41.9016 67.4266 41.6216 67.6826C41.3416 67.9306 41.1736 68.2946 41.1176 68.7746H39.7736C39.8296 67.9426 40.1096 67.2986 40.6136 66.8426C41.1176 66.3786 41.8136 66.1466 42.7016 66.1466ZM49.8266 66.1466C50.3866 66.1466 50.8666 66.2466 51.2666 66.4466C51.6666 66.6386 51.9666 66.9066 52.1666 67.2506C52.3746 67.5946 52.4786 67.9786 52.4786 68.4026C52.4786 68.9386 52.3266 69.3866 52.0226 69.7466C51.7266 70.0986 51.3066 70.3106 50.7626 70.3826V70.4426C51.3466 70.6106 51.8026 70.8626 52.1306 71.1986C52.4666 71.5266 52.6346 71.9826 52.6346 72.5666C52.6346 73.2786 52.3986 73.8586 51.9266 74.3066C51.4546 74.7466 50.7786 74.9666 49.8986 74.9666C48.9946 74.9666 48.2666 74.7386 47.7146 74.2826C47.1626 73.8186 46.8466 73.1346 46.7666 72.2306H48.1226C48.1706 72.7106 48.3426 73.0946 48.6386 73.3826C48.9346 73.6626 49.3346 73.8026 49.8386 73.8026C50.3106 73.8026 50.6706 73.6786 50.9186 73.4306C51.1746 73.1826 51.3026 72.8626 51.3026 72.4706C51.3026 71.9986 51.1186 71.6386 50.7506 71.3906C50.3906 71.1426 49.8666 71.0186 49.1786 71.0186H48.8546V69.8906H49.1786C50.4826 69.9066 51.1346 69.4626 51.1346 68.5586C51.1346 68.1666 51.0146 67.8586 50.7746 67.6346C50.5346 67.4106 50.2066 67.2986 49.7906 67.2986C49.3746 67.2986 49.0266 67.4266 48.7466 67.6826C48.4666 67.9306 48.2986 68.2946 48.2426 68.7746H46.8986C46.9546 67.9426 47.2346 67.2986 47.7386 66.8426C48.2426 66.3786 48.9386 66.1466 49.8266 66.1466ZM53.7716 73.0586V71.9066L57.9836 66.3386H59.4476V71.8586H60.6356V73.0586H59.4476V74.8826H58.0676V73.0586H53.7716ZM58.1636 67.9706L55.1876 71.8586H58.1636V67.9706ZM62.6368 73.9466C62.7808 74.3146 62.8528 74.6946 62.8528 75.0866C62.8528 75.5346 62.7368 75.8986 62.5048 76.1786C62.2728 76.4666 61.9208 76.6106 61.4488 76.6106V76.0586C61.6488 76.0586 61.7968 76.0066 61.8928 75.9026C61.9888 75.7986 62.0368 75.6226 62.0368 75.3746V75.2666H61.3408V73.9466H62.6368ZM68.5571 68.6906C68.4131 67.7466 67.9211 67.2746 67.0811 67.2746C66.4731 67.2746 66.0171 67.5186 65.7131 68.0066C65.4091 68.4866 65.2571 69.2426 65.2571 70.2746L65.2691 70.6826C65.3891 70.2506 65.6491 69.9066 66.0491 69.6506C66.4491 69.3946 66.9211 69.2666 67.4651 69.2666C68.2971 69.2666 68.9491 69.5146 69.4211 70.0106C69.8931 70.5066 70.1291 71.2066 70.1291 72.1106C70.1291 72.6546 70.0211 73.1426 69.8051 73.5746C69.5891 73.9986 69.2651 74.3386 68.8331 74.5946C68.4011 74.8426 67.8691 74.9666 67.2371 74.9666C66.0131 74.9666 65.1731 74.5866 64.7171 73.8266C64.2611 73.0666 64.0331 72.0226 64.0331 70.6946C64.0331 69.1746 64.2771 68.0386 64.7651 67.2866C65.2531 66.5346 66.0531 66.1586 67.1651 66.1586C67.9971 66.1586 68.6331 66.3946 69.0731 66.8666C69.5211 67.3386 69.7811 67.9466 69.8531 68.6906H68.5571ZM65.3891 71.9546C65.3891 72.4746 65.5411 72.9106 65.8451 73.2626C66.1491 73.6066 66.5971 73.7786 67.1891 73.7786C67.6931 73.7786 68.0931 73.6306 68.3891 73.3346C68.6931 73.0386 68.8451 72.6266 68.8451 72.0986C68.8451 71.5306 68.6931 71.0946 68.3891 70.7906C68.0851 70.4866 67.6731 70.3346 67.1531 70.3346C66.6811 70.3346 66.2691 70.4746 65.9171 70.7546C65.5651 71.0346 65.3891 71.4346 65.3891 71.9546ZM76.5376 67.3946L73.3816 74.8826H71.9416L75.1456 67.5506H70.9456V66.3626H76.5376V67.3946Z" fill="#00D2AA"/>
<path d="M21.476 81.5376V87.8826H20.657V81.5376H21.476ZM25.3937 82.8606C25.9697 82.8606 26.4347 83.0466 26.7887 83.4186C27.1427 83.7846 27.3197 84.3156 27.3197 85.0116V87.8826H26.5007V85.0836C26.5007 84.5916 26.3747 84.2136 26.1227 83.9496C25.8707 83.6856 25.5287 83.5536 25.0967 83.5536C24.6467 83.5536 24.2867 83.7006 24.0167 83.9946C23.7467 84.2826 23.6117 84.7056 23.6117 85.2636V87.8826H22.7927V82.9416H23.6117V84.1116C23.7377 83.7096 23.9597 83.4006 24.2777 83.1846C24.6017 82.9686 24.9737 82.8606 25.3937 82.8606ZM30.7629 82.8786C31.3929 82.8786 31.9149 83.0466 32.3289 83.3826C32.7429 83.7186 32.9979 84.1686 33.0939 84.7326H32.2299C32.1699 84.3786 32.0049 84.1026 31.7349 83.9046C31.4709 83.7006 31.1409 83.5986 30.7449 83.5986C30.4569 83.5986 30.1929 83.6646 29.9529 83.7966C29.7189 83.9286 29.5299 84.1326 29.3859 84.4086C29.2419 84.6786 29.1699 85.0146 29.1699 85.4166C29.1699 85.8186 29.2419 86.1576 29.3859 86.4336C29.5299 86.7036 29.7189 86.9046 29.9529 87.0366C30.1929 87.1686 30.4569 87.2346 30.7449 87.2346C31.1409 87.2346 31.4709 87.1326 31.7349 86.9286C32.0049 86.7246 32.1699 86.4456 32.2299 86.0916H33.0939C32.9979 86.6616 32.7429 87.1146 32.3289 87.4506C31.9149 87.7806 31.3929 87.9456 30.7629 87.9456C30.2889 87.9456 29.8689 87.8436 29.5029 87.6396C29.1369 87.4356 28.8489 87.1446 28.6389 86.7666C28.4349 86.3826 28.3329 85.9326 28.3329 85.4166C28.3329 84.9006 28.4349 84.4506 28.6389 84.0666C28.8489 83.6826 29.1369 83.3886 29.5029 83.1846C29.8689 82.9806 30.2889 82.8786 30.7629 82.8786ZM36.4068 82.8786C36.8808 82.8786 37.3038 82.9806 37.6758 83.1846C38.0538 83.3886 38.3478 83.6826 38.5578 84.0666C38.7738 84.4506 38.8818 84.9006 38.8818 85.4166C38.8818 85.9326 38.7738 86.3826 38.5578 86.7666C38.3478 87.1446 38.0538 87.4356 37.6758 87.6396C37.3038 87.8436 36.8808 87.9456 36.4068 87.9456C35.9328 87.9456 35.5068 87.8436 35.1288 87.6396C34.7568 87.4356 34.4628 87.1446 34.2468 86.7666C34.0308 86.3826 33.9228 85.9326 33.9228 85.4166C33.9228 84.9006 34.0308 84.4506 34.2468 84.0666C34.4628 83.6826 34.7568 83.3886 35.1288 83.1846C35.5068 82.9806 35.9328 82.8786 36.4068 82.8786ZM36.4068 83.5986C36.1128 83.5986 35.8398 83.6646 35.5878 83.7966C35.3418 83.9286 35.1408 84.1326 34.9848 84.4086C34.8348 84.6786 34.7598 85.0146 34.7598 85.4166C34.7598 85.8126 34.8348 86.1486 34.9848 86.4246C35.1408 86.6946 35.3418 86.8956 35.5878 87.0276C35.8398 87.1596 36.1128 87.2256 36.4068 87.2256C36.7008 87.2256 36.9708 87.1596 37.2168 87.0276C37.4688 86.8956 37.6698 86.6946 37.8198 86.4246C37.9758 86.1486 38.0538 85.8126 38.0538 85.4166C38.0538 85.0146 37.9758 84.6786 37.8198 84.4086C37.6698 84.1326 37.4688 83.9286 37.2168 83.7966C36.9708 83.6646 36.7008 83.5986 36.4068 83.5986ZM46.024 82.8606C46.6 82.8606 47.062 83.0466 47.41 83.4186C47.764 83.7846 47.941 84.3156 47.941 85.0116V87.8826H47.122V85.0836C47.122 84.5976 47.002 84.2256 46.762 83.9676C46.528 83.7096 46.204 83.5806 45.79 83.5806C45.358 83.5806 45.01 83.7246 44.746 84.0126C44.488 84.2946 44.359 84.7116 44.359 85.2636V87.8826H43.54V85.0836C43.54 84.5976 43.42 84.2256 43.18 83.9676C42.94 83.7096 42.616 83.5806 42.208 83.5806C41.77 83.5806 41.419 83.7246 41.155 84.0126C40.897 84.2946 40.768 84.7116 40.768 85.2636V87.8826H39.949V82.9416H40.768V84.0666C40.888 83.6766 41.101 83.3796 41.407 83.1756C41.719 82.9656 42.076 82.8606 42.478 82.8606C42.898 82.8606 43.261 82.9686 43.567 83.1846C43.879 83.3946 44.101 83.7066 44.233 84.1206C44.371 83.7186 44.602 83.4096 44.926 83.1936C45.25 82.9716 45.616 82.8606 46.024 82.8606ZM53.7577 85.1376C53.7577 85.3116 53.7457 85.4616 53.7217 85.5876H49.7707C49.7887 86.1516 49.9477 86.5746 50.2477 86.8566C50.5537 87.1386 50.9257 87.2796 51.3637 87.2796C51.7597 87.2796 52.0897 87.1806 52.3537 86.9826C52.6237 86.7786 52.7887 86.5086 52.8487 86.1726H53.7217C53.6617 86.5146 53.5267 86.8206 53.3167 87.0906C53.1127 87.3606 52.8457 87.5706 52.5157 87.7206C52.1857 87.8706 51.8137 87.9456 51.3997 87.9456C50.9257 87.9456 50.5057 87.8436 50.1397 87.6396C49.7737 87.4356 49.4857 87.1446 49.2757 86.7666C49.0717 86.3826 48.9697 85.9326 48.9697 85.4166C48.9697 84.9006 49.0717 84.4506 49.2757 84.0666C49.4857 83.6826 49.7737 83.3886 50.1397 83.1846C50.5057 82.9806 50.9257 82.8786 51.3997 82.8786C51.8797 82.8786 52.2967 82.9806 52.6507 83.1846C53.0107 83.3886 53.2837 83.6616 53.4697 84.0036C53.6617 84.3456 53.7577 84.7236 53.7577 85.1376ZM52.9297 85.1916C52.9477 84.8256 52.8877 84.5196 52.7497 84.2736C52.6117 84.0276 52.4227 83.8446 52.1827 83.7246C51.9427 83.6046 51.6817 83.5446 51.3997 83.5446C50.9497 83.5446 50.5717 83.6856 50.2657 83.9676C49.9597 84.2436 49.7947 84.6516 49.7707 85.1916H52.9297Z" fill="#00D2AA" fill-opacity="0.7"/>
<path d="M197.506 70.1066C198.074 70.2826 198.53 70.4506 198.874 70.6106C199.226 70.7706 199.522 71.0146 199.762 71.3426C200.01 71.6626 200.134 72.0906 200.134 72.6266C200.134 73.0426 200.026 73.4306 199.81 73.7906C199.602 74.1426 199.286 74.4266 198.862 74.6426C198.438 74.8586 197.918 74.9666 197.302 74.9666H197.278V75.9266H196.87V74.9426C196.078 74.8786 195.43 74.6306 194.926 74.1986C194.422 73.7586 194.142 73.2026 194.086 72.5306H195.55C195.582 72.8426 195.71 73.1266 195.934 73.3826C196.166 73.6386 196.478 73.7986 196.87 73.8626V71.1386C196.214 70.9386 195.714 70.7666 195.37 70.6226C195.026 70.4706 194.722 70.2306 194.458 69.9026C194.194 69.5746 194.062 69.1346 194.062 68.5826C194.062 68.1346 194.178 67.7386 194.41 67.3946C194.65 67.0506 194.982 66.7826 195.406 66.5906C195.83 66.3986 196.318 66.3026 196.87 66.3026V65.2826H197.278V66.3146C198.062 66.3706 198.686 66.6026 199.15 67.0106C199.614 67.4186 199.882 67.9346 199.954 68.5586H198.478C198.43 68.2706 198.302 68.0226 198.094 67.8146C197.894 67.5986 197.622 67.4586 197.278 67.3946V70.0346L197.506 70.1066ZM195.526 68.5346C195.526 68.8866 195.642 69.1666 195.874 69.3746C196.106 69.5746 196.438 69.7506 196.87 69.9026V67.3586C196.454 67.3666 196.126 67.4746 195.886 67.6826C195.646 67.8826 195.526 68.1666 195.526 68.5346ZM197.278 73.8986C197.718 73.8986 198.058 73.7826 198.298 73.5506C198.546 73.3186 198.67 73.0226 198.67 72.6626C198.67 72.2946 198.55 72.0106 198.31 71.8106C198.07 71.6026 197.726 71.4226 197.278 71.2706V73.8986ZM209.974 67.4906H205.786V70.0106C205.978 69.7626 206.25 69.5666 206.602 69.4226C206.954 69.2706 207.342 69.1946 207.766 69.1946C208.358 69.1946 208.85 69.3226 209.242 69.5786C209.634 69.8266 209.922 70.1586 210.106 70.5746C210.298 70.9906 210.394 71.4506 210.394 71.9546C210.394 72.8426 210.146 73.5626 209.65 74.1146C209.154 74.6586 208.434 74.9306 207.49 74.9306C206.602 74.9306 205.886 74.6946 205.342 74.2226C204.798 73.7506 204.502 73.1226 204.454 72.3386H205.798C205.87 72.7706 206.046 73.1106 206.326 73.3586C206.614 73.6066 206.978 73.7306 207.418 73.7306C207.962 73.7306 208.37 73.5666 208.642 73.2386C208.914 72.9106 209.05 72.4746 209.05 71.9306C209.05 71.4186 208.91 71.0186 208.63 70.7306C208.35 70.4346 207.95 70.2866 207.43 70.2866C207.062 70.2866 206.738 70.3666 206.458 70.5266C206.186 70.6866 205.986 70.8986 205.858 71.1626H204.526V66.2786H209.974V67.4906ZM212.879 73.3706V74.8826H211.331V73.3706H212.879ZM216.856 66.1466C217.416 66.1466 217.896 66.2466 218.296 66.4466C218.696 66.6386 218.996 66.9066 219.196 67.2506C219.404 67.5946 219.508 67.9786 219.508 68.4026C219.508 68.9386 219.356 69.3866 219.052 69.7466C218.756 70.0986 218.336 70.3106 217.792 70.3826V70.4426C218.376 70.6106 218.832 70.8626 219.16 71.1986C219.496 71.5266 219.664 71.9826 219.664 72.5666C219.664 73.2786 219.428 73.8586 218.956 74.3066C218.484 74.7466 217.808 74.9666 216.928 74.9666C216.024 74.9666 215.296 74.7386 214.744 74.2826C214.192 73.8186 213.876 73.1346 213.796 72.2306H215.152C215.2 72.7106 215.372 73.0946 215.668 73.3826C215.964 73.6626 216.364 73.8026 216.868 73.8026C217.34 73.8026 217.7 73.6786 217.948 73.4306C218.204 73.1826 218.332 72.8626 218.332 72.4706C218.332 71.9986 218.148 71.6386 217.78 71.3906C217.42 71.1426 216.896 71.0186 216.208 71.0186H215.884V69.8906H216.208C217.512 69.9066 218.164 69.4626 218.164 68.5586C218.164 68.1666 218.044 67.8586 217.804 67.6346C217.564 67.4106 217.236 67.2986 216.82 67.2986C216.404 67.2986 216.056 67.4266 215.776 67.6826C215.496 67.9306 215.328 68.2946 215.272 68.7746H213.928C213.984 67.9426 214.264 67.2986 214.768 66.8426C215.272 66.3786 215.968 66.1466 216.856 66.1466ZM220.537 67.6946V66.4106H223.249V74.8826H221.809V67.6946H220.537ZM233.673 66.5426V74.8826H232.293V68.6306L229.881 74.8826H228.681L226.257 68.6306V74.8826H224.889V66.5426H226.545L229.305 73.2026L232.017 66.5426H233.673Z" fill="#00D9F5"/>
<path d="M194.738 82.2036V84.3726H197.15V85.0026H194.738V87.2166H197.42V87.8826H193.919V81.5376H197.42V82.2036H194.738ZM201.316 87.8826L200.029 85.9926L198.868 87.8826H197.959L199.579 85.3356L197.95 82.9416H198.886L200.137 84.7776L201.28 82.9416H202.189L200.578 85.4256L202.252 87.8826H201.316ZM205.743 82.8786C206.181 82.8786 206.571 82.9806 206.913 83.1846C207.255 83.3886 207.522 83.6826 207.714 84.0666C207.912 84.4506 208.011 84.9006 208.011 85.4166C208.011 85.9326 207.912 86.3826 207.714 86.7666C207.522 87.1446 207.255 87.4356 206.913 87.6396C206.571 87.8436 206.181 87.9456 205.743 87.9456C205.263 87.9456 204.855 87.8256 204.519 87.5856C204.189 87.3396 203.961 87.0186 203.835 86.6226V90.2226H203.016V82.9416H203.835V84.2016C203.961 83.8056 204.189 83.4876 204.519 83.2476C204.855 83.0016 205.263 82.8786 205.743 82.8786ZM205.509 83.6076C205.191 83.6076 204.903 83.6826 204.645 83.8326C204.387 83.9766 204.186 84.1866 204.042 84.4626C203.898 84.7386 203.826 85.0566 203.826 85.4166C203.826 85.7766 203.898 86.0946 204.042 86.3706C204.186 86.6406 204.387 86.8506 204.645 87.0006C204.903 87.1506 205.191 87.2256 205.509 87.2256C206.019 87.2256 206.424 87.0666 206.724 86.7486C207.03 86.4246 207.183 85.9806 207.183 85.4166C207.183 84.8526 207.03 84.4116 206.724 84.0936C206.424 83.7696 206.019 83.6076 205.509 83.6076ZM213.625 85.1376C213.625 85.3116 213.613 85.4616 213.589 85.5876H209.638C209.656 86.1516 209.815 86.5746 210.115 86.8566C210.421 87.1386 210.793 87.2796 211.231 87.2796C211.627 87.2796 211.957 87.1806 212.221 86.9826C212.491 86.7786 212.656 86.5086 212.716 86.1726H213.589C213.529 86.5146 213.394 86.8206 213.184 87.0906C212.98 87.3606 212.713 87.5706 212.383 87.7206C212.053 87.8706 211.681 87.9456 211.267 87.9456C210.793 87.9456 210.373 87.8436 210.007 87.6396C209.641 87.4356 209.353 87.1446 209.143 86.7666C208.939 86.3826 208.837 85.9326 208.837 85.4166C208.837 84.9006 208.939 84.4506 209.143 84.0666C209.353 83.6826 209.641 83.3886 210.007 83.1846C210.373 82.9806 210.793 82.8786 211.267 82.8786C211.747 82.8786 212.164 82.9806 212.518 83.1846C212.878 83.3886 213.151 83.6616 213.337 84.0036C213.529 84.3456 213.625 84.7236 213.625 85.1376ZM212.797 85.1916C212.815 84.8256 212.755 84.5196 212.617 84.2736C212.479 84.0276 212.29 83.8446 212.05 83.7246C211.81 83.6046 211.549 83.5446 211.267 83.5446C210.817 83.5446 210.439 83.6856 210.133 83.9676C209.827 84.2436 209.662 84.6516 209.638 85.1916H212.797ZM217.298 82.8606C217.874 82.8606 218.339 83.0466 218.693 83.4186C219.047 83.7846 219.224 84.3156 219.224 85.0116V87.8826H218.405V85.0836C218.405 84.5916 218.279 84.2136 218.027 83.9496C217.775 83.6856 217.433 83.5536 217.001 83.5536C216.551 83.5536 216.191 83.7006 215.921 83.9946C215.651 84.2826 215.516 84.7056 215.516 85.2636V87.8826H214.697V82.9416H215.516V84.1116C215.642 83.7096 215.864 83.4006 216.182 83.1846C216.506 82.9686 216.878 82.8606 217.298 82.8606ZM222.028 82.8786C222.586 82.8786 223.033 83.0256 223.369 83.3196C223.711 83.6076 223.918 83.9976 223.99 84.4896H223.207C223.171 84.1956 223.048 83.9556 222.838 83.7696C222.634 83.5776 222.358 83.4816 222.01 83.4816C221.716 83.4816 221.485 83.5536 221.317 83.6976C221.155 83.8356 221.074 84.0246 221.074 84.2646C221.074 84.4446 221.128 84.5916 221.236 84.7056C221.35 84.8136 221.488 84.8976 221.65 84.9576C221.818 85.0116 222.046 85.0716 222.334 85.1376C222.7 85.2216 222.994 85.3086 223.216 85.3986C223.444 85.4826 223.636 85.6206 223.792 85.8126C223.954 86.0046 224.035 86.2626 224.035 86.5866C224.035 86.9886 223.882 87.3156 223.576 87.5676C223.276 87.8196 222.874 87.9456 222.37 87.9456C221.782 87.9456 221.302 87.8046 220.93 87.5226C220.558 87.2406 220.339 86.8476 220.273 86.3436H221.065C221.095 86.6436 221.224 86.8866 221.452 87.0726C221.686 87.2586 221.992 87.3516 222.37 87.3516C222.652 87.3516 222.871 87.2796 223.027 87.1356C223.189 86.9916 223.27 86.8026 223.27 86.5686C223.27 86.3766 223.213 86.2236 223.099 86.1096C222.985 85.9956 222.844 85.9086 222.676 85.8486C222.508 85.7886 222.277 85.7256 221.983 85.6596C221.617 85.5756 221.323 85.4916 221.101 85.4076C220.885 85.3236 220.699 85.1916 220.543 85.0116C220.393 84.8256 220.318 84.5766 220.318 84.2646C220.318 83.8506 220.471 83.5176 220.777 83.2656C221.083 83.0076 221.5 82.8786 222.028 82.8786ZM229.674 85.1376C229.674 85.3116 229.662 85.4616 229.638 85.5876H225.687C225.705 86.1516 225.864 86.5746 226.164 86.8566C226.47 87.1386 226.842 87.2796 227.28 87.2796C227.676 87.2796 228.006 87.1806 228.27 86.9826C228.54 86.7786 228.705 86.5086 228.765 86.1726H229.638C229.578 86.5146 229.443 86.8206 229.233 87.0906C229.029 87.3606 228.762 87.5706 228.432 87.7206C228.102 87.8706 227.73 87.9456 227.316 87.9456C226.842 87.9456 226.422 87.8436 226.056 87.6396C225.69 87.4356 225.402 87.1446 225.192 86.7666C224.988 86.3826 224.886 85.9326 224.886 85.4166C224.886 84.9006 224.988 84.4506 225.192 84.0666C225.402 83.6826 225.69 83.3886 226.056 83.1846C226.422 82.9806 226.842 82.8786 227.316 82.8786C227.796 82.8786 228.213 82.9806 228.567 83.1846C228.927 83.3886 229.2 83.6616 229.386 84.0036C229.578 84.3456 229.674 84.7236 229.674 85.1376ZM228.846 85.1916C228.864 84.8256 228.804 84.5196 228.666 84.2736C228.528 84.0276 228.339 83.8446 228.099 83.7246C227.859 83.6046 227.598 83.5446 227.316 83.5446C226.866 83.5446 226.488 83.6856 226.182 83.9676C225.876 84.2436 225.711 84.6516 225.687 85.1916H228.846ZM232.293 82.8786C232.851 82.8786 233.298 83.0256 233.634 83.3196C233.976 83.6076 234.183 83.9976 234.255 84.4896H233.472C233.436 84.1956 233.313 83.9556 233.103 83.7696C232.899 83.5776 232.623 83.4816 232.275 83.4816C231.981 83.4816 231.75 83.5536 231.582 83.6976C231.42 83.8356 231.339 84.0246 231.339 84.2646C231.339 84.4446 231.393 84.5916 231.501 84.7056C231.615 84.8136 231.753 84.8976 231.915 84.9576C232.083 85.0116 232.311 85.0716 232.599 85.1376C232.965 85.2216 233.259 85.3086 233.481 85.3986C233.709 85.4826 233.901 85.6206 234.057 85.8126C234.219 86.0046 234.3 86.2626 234.3 86.5866C234.3 86.9886 234.147 87.3156 233.841 87.5676C233.541 87.8196 233.139 87.9456 232.635 87.9456C232.047 87.9456 231.567 87.8046 231.195 87.5226C230.823 87.2406 230.604 86.8476 230.538 86.3436H231.33C231.36 86.6436 231.489 86.8866 231.717 87.0726C231.951 87.2586 232.257 87.3516 232.635 87.3516C232.917 87.3516 233.136 87.2796 233.292 87.1356C233.454 86.9916 233.535 86.8026 233.535 86.5686C233.535 86.3766 233.478 86.2236 233.364 86.1096C233.25 85.9956 233.109 85.9086 232.941 85.8486C232.773 85.7886 232.542 85.7256 232.248 85.6596C231.882 85.5756 231.588 85.4916 231.366 85.4076C231.15 85.3236 230.964 85.1916 230.808 85.0116C230.658 84.8256 230.583 84.5766 230.583 84.2646C230.583 83.8506 230.736 83.5176 231.042 83.2656C231.348 83.0076 231.765 82.8786 232.293 82.8786Z" fill="#00D9F5" fill-opacity="0.7"/>
<path d="M26.32 25.4266C27.376 25.4266 28.3307 25.672 29.184 26.1626C30.048 26.6533 30.7253 27.3413 31.216 28.2266C31.7173 29.1013 31.968 30.0933 31.968 31.2026C31.968 32.312 31.7173 33.3093 31.216 34.1946C30.7253 35.08 30.048 35.768 29.184 36.2586C28.3307 36.7493 27.376 36.9946 26.32 36.9946C25.264 36.9946 24.304 36.7493 23.44 36.2586C22.5867 35.768 21.9093 35.08 21.408 34.1946C20.9173 33.3093 20.672 32.312 20.672 31.2026C20.672 30.0933 20.9173 29.1013 21.408 28.2266C21.9093 27.3413 22.5867 26.6533 23.44 26.1626C24.304 25.672 25.264 25.4266 26.32 25.4266ZM26.32 27.5066C25.6587 27.5066 25.0773 27.656 24.576 27.9546C24.0747 28.2533 23.68 28.6853 23.392 29.2506C23.1147 29.8053 22.976 30.456 22.976 31.2026C22.976 31.9493 23.1147 32.6053 23.392 33.1706C23.68 33.7253 24.0747 34.152 24.576 34.4506C25.0773 34.7493 25.6587 34.8986 26.32 34.8986C26.9813 34.8986 27.5627 34.7493 28.064 34.4506C28.5653 34.152 28.9547 33.7253 29.232 33.1706C29.52 32.6053 29.664 31.9493 29.664 31.2026C29.664 30.456 29.52 29.8053 29.232 29.2506C28.9547 28.6853 28.5653 28.2533 28.064 27.9546C27.5627 27.656 26.9813 27.5066 26.32 27.5066ZM38.9446 27.8906C39.9686 27.8906 40.7846 28.2266 41.3926 28.8986C42.0006 29.5706 42.3046 30.5146 42.3046 31.7306V36.8826H40.0646V31.9866C40.0646 31.2826 39.8833 30.7386 39.5206 30.3546C39.158 29.96 38.662 29.7626 38.0326 29.7626C37.3926 29.7626 36.8806 29.9706 36.4966 30.3866C36.1126 30.8026 35.9206 31.4 35.9206 32.1786V36.8826H33.6646V28.0186H35.9206V29.7946C36.1553 29.1973 36.5393 28.7333 37.0726 28.4026C37.6166 28.0613 38.2406 27.8906 38.9446 27.8906ZM46.5456 25.0426V36.8826H44.2896V25.0426H46.5456ZM48.3305 25.4746C48.3305 25.112 48.4585 24.8186 48.7145 24.5946C48.9705 24.36 49.3065 24.2426 49.7225 24.2426C50.1385 24.2426 50.4745 24.36 50.7305 24.5946C50.9865 24.8186 51.1145 25.112 51.1145 25.4746C51.1145 25.8266 50.9865 26.12 50.7305 26.3546C50.4745 26.5786 50.1385 26.6906 49.7225 26.6906C49.3065 26.6906 48.9705 26.5786 48.7145 26.3546C48.4585 26.12 48.3305 25.8266 48.3305 25.4746ZM50.8425 28.0186V36.8826H48.5865V28.0186H50.8425ZM58.1634 27.8906C59.1874 27.8906 60.0034 28.2266 60.6114 28.8986C61.2194 29.5706 61.5234 30.5146 61.5234 31.7306V36.8826H59.2834V31.9866C59.2834 31.2826 59.102 30.7386 58.7394 30.3546C58.3767 29.96 57.8807 29.7626 57.2514 29.7626C56.6114 29.7626 56.0994 29.9706 55.7154 30.3866C55.3314 30.8026 55.1394 31.4 55.1394 32.1786V36.8826H52.8834V28.0186H55.1394V29.7946C55.374 29.1973 55.758 28.7333 56.2914 28.4026C56.8354 28.0613 57.4594 27.8906 58.1634 27.8906ZM71.8444 32.1146C71.8444 32.3386 71.8177 32.5946 71.7644 32.8826H65.2684C65.3004 33.672 65.5137 34.2533 65.9084 34.6266C66.303 35 66.7937 35.1866 67.3804 35.1866C67.903 35.1866 68.335 35.0586 68.6764 34.8026C69.0284 34.5466 69.2524 34.2 69.3484 33.7626H71.7324C71.615 34.3813 71.3644 34.936 70.9804 35.4266C70.5964 35.9173 70.1004 36.3013 69.4924 36.5786C68.895 36.856 68.2284 36.9946 67.4924 36.9946C66.6284 36.9946 65.8604 36.8133 65.1884 36.4506C64.5164 36.0773 63.9937 35.5493 63.6204 34.8666C63.247 34.184 63.0604 33.3786 63.0604 32.4506C63.0604 31.5226 63.247 30.7173 63.6204 30.0346C63.9937 29.3413 64.5164 28.8133 65.1884 28.4506C65.8604 28.088 66.6284 27.9066 67.4924 27.9066C68.367 27.9066 69.1297 28.088 69.7804 28.4506C70.4417 28.8133 70.9484 29.3146 71.3004 29.9546C71.663 30.584 71.8444 31.304 71.8444 32.1146ZM69.5724 31.8906C69.6044 31.1653 69.4124 30.616 68.9964 30.2426C68.591 29.8693 68.0897 29.6826 67.4924 29.6826C66.8844 29.6826 66.3724 29.8693 65.9564 30.2426C65.5404 30.616 65.311 31.1653 65.2684 31.8906H69.5724ZM83.8103 34.6106H79.2823L78.4823 36.8826H76.0983L80.2583 25.7146H82.8343L86.9783 36.8826H84.5943L83.8103 34.6106ZM83.2023 32.8986L81.5383 28.1306L79.8743 32.8986H83.2023ZM93.4759 27.8906C94.4999 27.8906 95.3159 28.2266 95.9239 28.8986C96.5319 29.5706 96.8359 30.5146 96.8359 31.7306V36.8826H94.5959V31.9866C94.5959 31.2826 94.4145 30.7386 94.0519 30.3546C93.6892 29.96 93.1932 29.7626 92.5639 29.7626C91.9239 29.7626 91.4119 29.9706 91.0279 30.3866C90.6439 30.8026 90.4519 31.4 90.4519 32.1786V36.8826H88.1959V28.0186H90.4519V29.7946C90.6865 29.1973 91.0705 28.7333 91.6039 28.4026C92.1479 28.0613 92.7719 27.8906 93.4759 27.8906ZM102.293 27.9066C103.04 27.9066 103.68 28.0826 104.213 28.4346C104.746 28.7866 105.125 29.2613 105.349 29.8586V28.0186H107.589V36.8826H105.349V35.0266C105.125 35.624 104.746 36.104 104.213 36.4666C103.68 36.8186 103.04 36.9946 102.293 36.9946C101.546 36.9946 100.874 36.8133 100.277 36.4506C99.6795 36.088 99.2102 35.5653 98.8689 34.8826C98.5382 34.1893 98.3729 33.3786 98.3729 32.4506C98.3729 31.5226 98.5382 30.7173 98.8689 30.0346C99.2102 29.3413 99.6795 28.8133 100.277 28.4506C100.874 28.088 101.546 27.9066 102.293 27.9066ZM102.997 29.8746C102.293 29.8746 101.728 30.104 101.301 30.5626C100.874 31.0213 100.661 31.6506 100.661 32.4506C100.661 33.2506 100.874 33.88 101.301 34.3386C101.728 34.7866 102.293 35.0106 102.997 35.0106C103.68 35.0106 104.24 34.7813 104.677 34.3226C105.125 33.8533 105.349 33.2293 105.349 32.4506C105.349 31.6613 105.125 31.0373 104.677 30.5786C104.24 30.1093 103.68 29.8746 102.997 29.8746ZM111.889 25.0426V36.8826H109.633V25.0426H111.889ZM115.45 28.0186L117.866 34.0346L120.106 28.0186H122.586L117.162 41.1066H114.666L116.666 36.6266L112.938 28.0186H115.45ZM126.705 27.9066C127.782 27.9066 128.646 28.1786 129.297 28.7226C129.948 29.2666 130.353 29.992 130.513 30.8986H128.401C128.316 30.472 128.124 30.1306 127.825 29.8746C127.526 29.6186 127.137 29.4906 126.657 29.4906C126.273 29.4906 125.974 29.5813 125.761 29.7626C125.548 29.944 125.441 30.1893 125.441 30.4986C125.441 30.744 125.526 30.9413 125.697 31.0906C125.868 31.24 126.081 31.3573 126.337 31.4426C126.593 31.528 126.961 31.6293 127.441 31.7466C128.113 31.896 128.657 32.056 129.073 32.2266C129.5 32.3866 129.862 32.648 130.161 33.0106C130.47 33.3626 130.625 33.8426 130.625 34.4506C130.625 35.208 130.326 35.8213 129.729 36.2906C129.142 36.76 128.348 36.9946 127.345 36.9946C126.193 36.9946 125.27 36.7386 124.577 36.2266C123.884 35.704 123.462 34.9626 123.313 34.0026H125.473C125.526 34.44 125.718 34.7866 126.049 35.0426C126.38 35.288 126.812 35.4106 127.345 35.4106C127.729 35.4106 128.022 35.32 128.225 35.1386C128.428 34.9466 128.529 34.7013 128.529 34.4026C128.529 34.1466 128.438 33.9386 128.257 33.7786C128.086 33.6186 127.868 33.496 127.601 33.4106C127.345 33.3253 126.977 33.224 126.497 33.1066C125.836 32.9573 125.297 32.808 124.881 32.6586C124.476 32.4986 124.124 32.248 123.825 31.9066C123.537 31.5653 123.393 31.096 123.393 30.4986C123.393 29.7306 123.686 29.1066 124.273 28.6266C124.86 28.1466 125.67 27.9066 126.705 27.9066ZM132.049 25.4746C132.049 25.112 132.177 24.8186 132.433 24.5946C132.689 24.36 133.025 24.2426 133.441 24.2426C133.857 24.2426 134.193 24.36 134.449 24.5946C134.705 24.8186 134.833 25.112 134.833 25.4746C134.833 25.8266 134.705 26.12 134.449 26.3546C134.193 26.5786 133.857 26.6906 133.441 26.6906C133.025 26.6906 132.689 26.5786 132.433 26.3546C132.177 26.12 132.049 25.8266 132.049 25.4746ZM134.561 28.0186V36.8826H132.305V28.0186H134.561ZM139.658 27.9066C140.735 27.9066 141.599 28.1786 142.25 28.7226C142.901 29.2666 143.306 29.992 143.466 30.8986H141.354C141.269 30.472 141.077 30.1306 140.778 29.8746C140.479 29.6186 140.09 29.4906 139.61 29.4906C139.226 29.4906 138.927 29.5813 138.714 29.7626C138.501 29.944 138.394 30.1893 138.394 30.4986C138.394 30.744 138.479 30.9413 138.65 31.0906C138.821 31.24 139.034 31.3573 139.29 31.4426C139.546 31.528 139.914 31.6293 140.394 31.7466C141.066 31.896 141.61 32.056 142.026 32.2266C142.453 32.3866 142.815 32.648 143.114 33.0106C143.423 33.3626 143.578 33.8426 143.578 34.4506C143.578 35.208 143.279 35.8213 142.682 36.2906C142.095 36.76 141.301 36.9946 140.298 36.9946C139.146 36.9946 138.223 36.7386 137.53 36.2266C136.837 35.704 136.415 34.9626 136.266 34.0026H138.426C138.479 34.44 138.671 34.7866 139.002 35.0426C139.333 35.288 139.765 35.4106 140.298 35.4106C140.682 35.4106 140.975 35.32 141.178 35.1386C141.381 34.9466 141.482 34.7013 141.482 34.4026C141.482 34.1466 141.391 33.9386 141.21 33.7786C141.039 33.6186 140.821 33.496 140.554 33.4106C140.298 33.3253 139.93 33.224 139.45 33.1066C138.789 32.9573 138.25 32.808 137.834 32.6586C137.429 32.4986 137.077 32.248 136.778 31.9066C136.49 31.5653 136.346 31.096 136.346 30.4986C136.346 29.7306 136.639 29.1066 137.226 28.6266C137.813 28.1466 138.623 27.9066 139.658 27.9066Z" fill="white"/>
<path d="M183.13 29.6826V28.8326H185.15V35.8826H184.19V29.6826H183.13ZM196.132 28.9526V35.8826H195.222V30.3526L193.012 35.8826H192.202L189.982 30.3726V35.8826H189.072V28.9526H190.162L192.622 34.7726L195.042 28.9526H196.132ZM200.077 30.3226C200.604 30.3226 201.074 30.436 201.487 30.6626C201.907 30.8893 202.234 31.216 202.467 31.6426C202.707 32.0693 202.827 32.5693 202.827 33.1426C202.827 33.716 202.707 34.216 202.467 34.6426C202.234 35.0626 201.907 35.386 201.487 35.6126C201.074 35.8393 200.604 35.9526 200.077 35.9526C199.551 35.9526 199.077 35.8393 198.657 35.6126C198.244 35.386 197.917 35.0626 197.677 34.6426C197.437 34.216 197.317 33.716 197.317 33.1426C197.317 32.5693 197.437 32.0693 197.677 31.6426C197.917 31.216 198.244 30.8893 198.657 30.6626C199.077 30.436 199.551 30.3226 200.077 30.3226ZM200.077 31.1226C199.751 31.1226 199.447 31.196 199.167 31.3426C198.894 31.4893 198.671 31.716 198.497 32.0226C198.331 32.3226 198.247 32.696 198.247 33.1426C198.247 33.5826 198.331 33.956 198.497 34.2626C198.671 34.5626 198.894 34.786 199.167 34.9326C199.447 35.0793 199.751 35.1526 200.077 35.1526C200.404 35.1526 200.704 35.0793 200.977 34.9326C201.257 34.786 201.481 34.5626 201.647 34.2626C201.821 33.956 201.907 33.5826 201.907 33.1426C201.907 32.696 201.821 32.3226 201.647 32.0226C201.481 31.716 201.257 31.4893 200.977 31.3426C200.704 31.196 200.404 31.1226 200.077 31.1226ZM206.903 30.3026C207.543 30.3026 208.06 30.5093 208.453 30.9226C208.847 31.3293 209.043 31.9193 209.043 32.6926V35.8826H208.133V32.7726C208.133 32.226 207.993 31.806 207.713 31.5126C207.433 31.2193 207.053 31.0726 206.573 31.0726C206.073 31.0726 205.673 31.236 205.373 31.5626C205.073 31.8826 204.923 32.3526 204.923 32.9726V35.8826H204.013V30.3926H204.923V31.6926C205.063 31.246 205.31 30.9026 205.663 30.6626C206.023 30.4226 206.437 30.3026 206.903 30.3026ZM213.059 35.0826V35.8826H212.379C211.819 35.8826 211.399 35.7493 211.119 35.4826C210.846 35.216 210.709 34.7693 210.709 34.1426V31.1826H209.889V30.3926H210.709V29.0226H211.629V30.3926H213.049V31.1826H211.629V34.1626C211.629 34.516 211.692 34.7593 211.819 34.8926C211.952 35.0193 212.179 35.0826 212.499 35.0826H213.059ZM217.059 30.3026C217.699 30.3026 218.216 30.5093 218.609 30.9226C219.003 31.3293 219.199 31.9193 219.199 32.6926V35.8826H218.289V32.7726C218.289 32.226 218.149 31.806 217.869 31.5126C217.589 31.2193 217.209 31.0726 216.729 31.0726C216.229 31.0726 215.829 31.236 215.529 31.5626C215.229 31.8826 215.079 32.3526 215.079 32.9726V35.8826H214.169V28.4826H215.079V31.6926C215.219 31.246 215.466 30.9026 215.819 30.6626C216.179 30.4226 216.593 30.3026 217.059 30.3026Z" fill="white"/>
<g clip-path="url(#clip0_1_370)">
<path d="M226.083 31.716L229 34.6326L231.917 31.716H226.083Z" fill="white"/>
</g>
<defs>
<linearGradient id="paint0_linear_1_370" x1="-466.326" y1="-737.909" x2="294.859" y2="140.669" gradientUnits="userSpaceOnUse">
<stop stop-color="white"/>
<stop offset="0.939091" stop-color="#14101D"/>
</linearGradient>
<linearGradient id="paint1_linear_1_370" x1="85" y1="208.383" x2="113" y2="208.383" gradientUnits="userSpaceOnUse">
<stop stop-color="#00F5A0"/>
<stop offset="1" stop-color="#00D9F5"/>
</linearGradient>
<linearGradient id="paint2_linear_1_370" x1="20" y1="142.383" x2="235" y2="142.383" gradientUnits="userSpaceOnUse">
<stop stop-color="#00F5A0"/>
<stop offset="1" stop-color="#00D9F5"/>
</linearGradient>
<linearGradient id="paint3_linear_1_370" x1="96" y1="156.883" x2="204" y2="156.883" gradientUnits="userSpaceOnUse">
<stop stop-color="#00F5A0"/>
<stop offset="1" stop-color="#00D9F5"/>
</linearGradient>
<clipPath id="clip0_1_370">
<rect width="14" height="14" fill="white" transform="translate(222 25.8826)"/>
</clipPath>
</defs>
</svg>
