<svg width="262" height="141" viewBox="0 0 262 141" fill="none" xmlns="http://www.w3.org/2000/svg">
<g filter="url(#filter0_b_1_329)">
<rect y="0.882629" width="262" height="140" rx="20" fill="url(#paint0_linear_1_329)"/>
</g>
<path d="M23.6537 35.6906V39.8826H21.3977V28.5866H25.5097C26.8431 28.5866 27.8457 28.9066 28.5177 29.5466C29.2004 30.1866 29.5417 31.056 29.5417 32.1546C29.5417 33.232 29.1897 34.0906 28.4857 34.7306C27.7924 35.3706 26.8004 35.6906 25.5097 35.6906H23.6537ZM25.2697 33.8826C26.5924 33.8826 27.2537 33.3066 27.2537 32.1546C27.2537 31.5893 27.0991 31.1573 26.7897 30.8586C26.4804 30.56 25.9737 30.4106 25.2697 30.4106H23.6537V33.8826H25.2697ZM34.6391 30.9066C35.3858 30.9066 36.0258 31.0826 36.5591 31.4346C37.0925 31.7866 37.4711 32.2613 37.6951 32.8586V31.0186H39.9351V39.8826H37.6951V38.0266C37.4711 38.624 37.0925 39.104 36.5591 39.4666C36.0258 39.8186 35.3858 39.9946 34.6391 39.9946C33.8925 39.9946 33.2205 39.8133 32.6231 39.4506C32.0258 39.088 31.5565 38.5653 31.2151 37.8826C30.8845 37.1893 30.7191 36.3786 30.7191 35.4506C30.7191 34.5226 30.8845 33.7173 31.2151 33.0346C31.5565 32.3413 32.0258 31.8133 32.6231 31.4506C33.2205 31.088 33.8925 30.9066 34.6391 30.9066ZM35.3431 32.8746C34.6391 32.8746 34.0738 33.104 33.6471 33.5626C33.2205 34.0213 33.0071 34.6506 33.0071 35.4506C33.0071 36.2506 33.2205 36.88 33.6471 37.3386C34.0738 37.7866 34.6391 38.0106 35.3431 38.0106C36.0258 38.0106 36.5858 37.7813 37.0231 37.3226C37.4711 36.8533 37.6951 36.2293 37.6951 35.4506C37.6951 34.6613 37.4711 34.0373 37.0231 33.5786C36.5858 33.1093 36.0258 32.8746 35.3431 32.8746ZM43.6596 31.0186L46.0756 37.0346L48.3156 31.0186H50.7956L45.3716 44.1066H42.8756L44.8756 39.6266L41.1476 31.0186H43.6596ZM67.8387 28.7146V39.8826H65.5987V32.0906L62.7347 39.8826H60.7827L57.9187 32.1226V39.8826H55.6627V28.7146H58.3987L61.7907 37.1146L65.1187 28.7146H67.8387ZM78.3775 35.1146C78.3775 35.3386 78.3508 35.5946 78.2975 35.8826H71.8015C71.8335 36.672 72.0468 37.2533 72.4415 37.6266C72.8362 38 73.3268 38.1866 73.9135 38.1866C74.4362 38.1866 74.8682 38.0586 75.2095 37.8026C75.5615 37.5466 75.7855 37.2 75.8815 36.7626H78.2655C78.1482 37.3813 77.8975 37.936 77.5135 38.4266C77.1295 38.9173 76.6335 39.3013 76.0255 39.5786C75.4282 39.856 74.7615 39.9946 74.0255 39.9946C73.1615 39.9946 72.3935 39.8133 71.7215 39.4506C71.0495 39.0773 70.5268 38.5493 70.1535 37.8666C69.7802 37.184 69.5935 36.3786 69.5935 35.4506C69.5935 34.5226 69.7802 33.7173 70.1535 33.0346C70.5268 32.3413 71.0495 31.8133 71.7215 31.4506C72.3935 31.088 73.1615 30.9066 74.0255 30.9066C74.9002 30.9066 75.6628 31.088 76.3135 31.4506C76.9748 31.8133 77.4815 32.3146 77.8335 32.9546C78.1962 33.584 78.3775 34.304 78.3775 35.1146ZM76.1055 34.8906C76.1375 34.1653 75.9455 33.616 75.5295 33.2426C75.1242 32.8693 74.6228 32.6826 74.0255 32.6826C73.4175 32.6826 72.9055 32.8693 72.4895 33.2426C72.0735 33.616 71.8442 34.1653 71.8015 34.8906H76.1055ZM84.875 37.9466V39.8826H83.691C82.699 39.8826 81.9363 39.6426 81.403 39.1626C80.8803 38.6826 80.619 37.8826 80.619 36.7626V32.9226H79.387V31.0186H80.619V28.8266H82.875V31.0186H84.859V32.9226H82.875V36.7946C82.875 37.2213 82.9603 37.52 83.131 37.6906C83.3017 37.8613 83.5897 37.9466 83.995 37.9466H84.875ZM91.9384 30.8906C92.9624 30.8906 93.7784 31.2266 94.3864 31.8986C94.9944 32.5706 95.2984 33.5146 95.2984 34.7306V39.8826H93.0584V34.9866C93.0584 34.2826 92.877 33.7386 92.5144 33.3546C92.1517 32.96 91.6557 32.7626 91.0264 32.7626C90.3864 32.7626 89.8744 32.9706 89.4904 33.3866C89.1064 33.8026 88.9144 34.4 88.9144 35.1786V39.8826H86.6584V28.0426H88.9144V32.7946C89.149 32.1973 89.533 31.7333 90.0664 31.4026C90.6104 31.0613 91.2344 30.8906 91.9384 30.8906ZM101.539 30.9066C102.403 30.9066 103.177 31.088 103.859 31.4506C104.553 31.8133 105.097 32.3413 105.491 33.0346C105.886 33.7173 106.083 34.5226 106.083 35.4506C106.083 36.3786 105.886 37.184 105.491 37.8666C105.097 38.5493 104.553 39.0773 103.859 39.4506C103.177 39.8133 102.403 39.9946 101.539 39.9946C100.675 39.9946 99.8967 39.8133 99.2034 39.4506C98.5207 39.0773 97.982 38.5493 97.5874 37.8666C97.1927 37.184 96.9954 36.3786 96.9954 35.4506C96.9954 34.5226 97.1927 33.7173 97.5874 33.0346C97.982 32.3413 98.5207 31.8133 99.2034 31.4506C99.8967 31.088 100.675 30.9066 101.539 30.9066ZM101.539 32.8586C100.91 32.8586 100.377 33.0826 99.9394 33.5306C99.502 33.968 99.2834 34.608 99.2834 35.4506C99.2834 36.2933 99.502 36.9386 99.9394 37.3866C100.377 37.824 100.91 38.0426 101.539 38.0426C102.169 38.0426 102.702 37.824 103.139 37.3866C103.577 36.9386 103.795 36.2933 103.795 35.4506C103.795 34.608 103.577 33.968 103.139 33.5306C102.702 33.0826 102.169 32.8586 101.539 32.8586ZM111.31 30.9066C112.056 30.9066 112.691 31.0826 113.214 31.4346C113.747 31.7866 114.131 32.2613 114.366 32.8586V28.0426H116.606V39.8826H114.366V38.0266C114.131 38.624 113.747 39.104 113.214 39.4666C112.691 39.8186 112.056 39.9946 111.31 39.9946C110.563 39.9946 109.891 39.8133 109.294 39.4506C108.696 39.088 108.227 38.5653 107.886 37.8826C107.555 37.1893 107.39 36.3786 107.39 35.4506C107.39 34.5226 107.555 33.7173 107.886 33.0346C108.227 32.3413 108.696 31.8133 109.294 31.4506C109.891 31.088 110.563 30.9066 111.31 30.9066ZM112.014 32.8746C111.31 32.8746 110.744 33.104 110.318 33.5626C109.891 34.0213 109.678 34.6506 109.678 35.4506C109.678 36.2506 109.891 36.88 110.318 37.3386C110.744 37.7866 111.31 38.0106 112.014 38.0106C112.696 38.0106 113.256 37.7813 113.694 37.3226C114.142 36.8533 114.366 36.2293 114.366 35.4506C114.366 34.6613 114.142 34.0373 113.694 33.5786C113.256 33.1093 112.696 32.8746 112.014 32.8746Z" fill="white"/>
<rect x="20" y="62.8826" width="48" height="48" rx="10" fill="url(#paint1_linear_1_329)"/>
<rect x="20" y="62.8826" width="48" height="48" rx="10" fill="white"/>
<rect x="78" y="62.8826" width="48" height="48" rx="10" fill="url(#paint2_linear_1_329)"/>
<rect x="78" y="62.8826" width="48" height="48" rx="10" fill="white"/>
<rect x="136" y="62.8826" width="48" height="48" rx="10" fill="url(#paint3_linear_1_329)"/>
<rect x="136" y="62.8826" width="48" height="48" rx="10" fill="white"/>
<rect x="194" y="62.8826" width="48" height="48" rx="10" fill="url(#paint4_linear_1_329)"/>
<rect x="194" y="62.8826" width="48" height="48" rx="10" fill="white"/>
<path d="M38.8181 100.24L39.3088 97.1226L38.2156 97.0973H32.9955L36.6232 74.095C36.634 74.0247 36.6697 73.9607 36.7238 73.9145C36.7779 73.8684 36.8468 73.8432 36.9179 73.8435H45.7198C48.6419 73.8435 50.6584 74.4516 51.7113 75.6518C52.2048 76.2148 52.5192 76.8032 52.6712 77.4506C52.8307 78.13 52.8335 78.9417 52.6778 79.9317L52.6665 80.0039V80.6383L53.1601 80.9179C53.5369 81.1088 53.8756 81.367 54.1595 81.6799C54.5817 82.1612 54.8548 82.7731 54.9702 83.4984C55.0894 84.2444 55.05 85.1321 54.8548 86.1371C54.6296 87.2932 54.2655 88.3001 53.7738 89.1239C53.34 89.862 52.7566 90.5013 52.0613 91.0007C51.4082 91.4642 50.6321 91.8161 49.7548 92.0413C48.9046 92.2628 47.9353 92.3745 46.8721 92.3745H46.1871C45.6972 92.3745 45.2215 92.5509 44.848 92.8671C44.4751 93.1867 44.2277 93.6283 44.1499 94.1133L44.0983 94.3938L43.2312 99.888L43.1918 100.09C43.1815 100.154 43.1637 100.185 43.1374 100.207C43.1119 100.228 43.0802 100.239 43.0473 100.24H38.8181Z" fill="#253B80"/>
<path d="M53.6275 80.0771C53.6012 80.2451 53.5712 80.4168 53.5374 80.5932C52.3766 86.5528 48.4054 88.6116 43.3335 88.6116H40.7512C40.1309 88.6116 39.6082 89.062 39.5116 89.6738L38.1894 98.0591L37.815 100.436C37.8001 100.53 37.8058 100.627 37.8317 100.718C37.8576 100.81 37.9031 100.896 37.9651 100.968C38.0271 101.041 38.1041 101.099 38.1907 101.139C38.2774 101.179 38.3717 101.2 38.4672 101.2H43.0473C43.5897 101.2 44.0505 100.806 44.1359 100.271L44.1809 100.038L45.0433 94.5655L45.0986 94.2652C45.1831 93.7285 45.6448 93.3344 46.1871 93.3344H46.8721C51.3097 93.3344 54.7835 91.5327 55.7988 86.3191C56.223 84.1412 56.0034 82.3226 54.8811 81.0436C54.5254 80.648 54.1006 80.3204 53.6275 80.0771Z" fill="#179BD7"/>
<path d="M52.4132 79.5929C52.0426 79.4857 51.6656 79.402 51.2844 79.3424C50.5312 79.2266 49.7699 79.1711 49.0079 79.1763H42.109C41.8465 79.1761 41.5925 79.2698 41.393 79.4405C41.1936 79.6112 41.0618 79.8477 41.0214 80.1071L39.5538 89.4026L39.5116 89.6738C39.5573 89.3779 39.7074 89.1081 39.9348 88.9133C40.1622 88.7184 40.4518 88.6114 40.7512 88.6116H43.3336C48.4055 88.6116 52.3766 86.5519 53.5374 80.5932C53.5721 80.4168 53.6012 80.2451 53.6275 80.0771C53.3212 79.9165 53.002 79.7818 52.6732 79.6745C52.587 79.6459 52.5003 79.6187 52.4132 79.5929Z" fill="#222D65"/>
<path d="M41.0214 80.1071C41.0614 79.8476 41.1931 79.6111 41.3927 79.4404C41.5922 79.2698 41.8464 79.1764 42.109 79.1772H49.0079C49.8252 79.1772 50.5881 79.2307 51.2843 79.3433C51.7555 79.4174 52.2202 79.5281 52.6741 79.6745C53.0166 79.7881 53.3347 79.9223 53.6284 80.0771C53.9737 77.8748 53.6256 76.3752 52.4348 75.0174C51.122 73.5226 48.7526 72.8826 45.7207 72.8826H36.9188C36.2995 72.8826 35.7712 73.333 35.6755 73.9458L32.0093 97.1845C31.9922 97.2924 31.9987 97.4027 32.0283 97.5079C32.058 97.613 32.11 97.7105 32.1809 97.7936C32.2518 97.8767 32.3398 97.9435 32.439 97.9893C32.5382 98.0351 32.6461 98.0589 32.7553 98.0591H38.1894L39.5538 89.4026L41.0214 80.1071Z" fill="#253B80"/>
<g clip-path="url(#clip0_1_329)">
<path d="M106.499 74.8826C105.219 74.9711 103.724 75.7901 102.852 76.8566C102.057 77.8241 101.403 79.2611 101.658 80.6576C103.056 80.7011 104.501 79.8626 105.338 78.7781C106.121 77.7686 106.713 76.3406 106.499 74.8826Z" fill="#B9B9B9"/>
<path d="M111.555 82.9346C110.327 81.3941 108.6 80.5001 106.97 80.5001C104.817 80.5001 103.907 81.5306 102.411 81.5306C100.87 81.5306 99.698 80.5031 97.8365 80.5031C96.008 80.5031 94.061 81.6206 92.8266 83.5316C91.0911 86.2226 91.3881 91.2821 94.2005 95.5915C95.207 97.1335 96.551 98.8675 98.309 98.8825C99.8735 98.8975 100.315 97.879 102.434 97.8685C104.553 97.8565 104.955 98.896 106.517 98.8795C108.276 98.866 109.694 96.9445 110.7 95.4025C111.422 94.297 111.69 93.7405 112.25 92.4926C108.18 90.9431 107.528 85.1561 111.555 82.9346Z" fill="#B9B9B9"/>
</g>
<path d="M155.733 91.4794L157.359 82.3365H159.898L158.324 91.4794H155.733Z" fill="#3C58BF"/>
<path d="M155.733 91.4794L157.816 82.3365H159.898L158.324 91.4794H155.733Z" fill="#293688"/>
<path d="M167.517 82.4382C167.009 82.235 166.197 82.0319 165.181 82.0319C162.641 82.0319 160.813 83.3017 160.813 85.1303C160.813 86.5017 162.082 87.2128 163.098 87.67C164.114 88.1271 164.419 88.4319 164.419 88.8382C164.419 89.4477 163.606 89.7525 162.895 89.7525C161.879 89.7525 161.321 89.6001 160.457 89.2446L160.102 89.0922L159.746 91.1747C160.355 91.4287 161.473 91.6827 162.641 91.6827C165.333 91.6827 167.111 90.4128 167.111 88.4827C167.111 87.416 166.451 86.6033 164.927 85.943C164.013 85.4858 163.454 85.2319 163.454 84.7747C163.454 84.3684 163.911 83.962 164.927 83.962C165.79 83.962 166.4 84.1144 166.857 84.3176L167.111 84.4192L167.517 82.4382Z" fill="#3C58BF"/>
<path d="M167.517 82.4382C167.009 82.235 166.197 82.0319 165.181 82.0319C162.641 82.0319 161.27 83.3017 161.27 85.1303C161.27 86.5017 162.082 87.2128 163.098 87.67C164.114 88.1271 164.419 88.4319 164.419 88.8382C164.419 89.4477 163.606 89.7525 162.895 89.7525C161.879 89.7525 161.321 89.6001 160.457 89.2446L160.102 89.0922L159.746 91.1747C160.355 91.4287 161.473 91.6827 162.641 91.6827C165.333 91.6827 167.111 90.4128 167.111 88.4827C167.111 87.416 166.451 86.6033 164.927 85.943C164.013 85.4858 163.454 85.2319 163.454 84.7747C163.454 84.3684 163.911 83.962 164.927 83.962C165.79 83.962 166.4 84.1144 166.857 84.3176L167.111 84.4192L167.517 82.4382Z" fill="#293688"/>
<path d="M171.886 82.3365C171.276 82.3365 170.819 82.3873 170.565 82.9969L166.755 91.4794H169.498L170.006 89.9556H173.257L173.562 91.4794H176L173.867 82.3365H171.886ZM170.717 88.4318C170.87 87.9746 171.733 85.7397 171.733 85.7397C171.733 85.7397 171.936 85.181 172.089 84.8254L172.241 85.6889C172.241 85.6889 172.749 87.9746 172.851 88.4826H170.717V88.4318Z" fill="#3C58BF"/>
<path d="M172.495 82.3365C171.886 82.3365 171.428 82.3873 171.175 82.9969L166.755 91.4794H169.498L170.006 89.9556H173.257L173.562 91.4794H176L173.867 82.3365H172.495ZM170.717 88.4318C170.921 87.9239 171.733 85.7397 171.733 85.7397C171.733 85.7397 171.936 85.181 172.089 84.8254L172.241 85.6889C172.241 85.6889 172.749 87.9746 172.851 88.4826H170.717V88.4318Z" fill="#293688"/>
<path d="M151.06 88.7366L150.806 87.4159C150.349 85.8921 148.876 84.2159 147.251 83.4032L149.536 91.5302H152.279L156.394 82.3874H153.651L151.06 88.7366Z" fill="#3C58BF"/>
<path d="M151.06 88.7366L150.806 87.4159C150.349 85.8921 148.876 84.2159 147.251 83.4032L149.536 91.5302H152.279L156.394 82.3874H154.159L151.06 88.7366Z" fill="#293688"/>
<path d="M144 82.3365L144.457 82.4381C147.708 83.2 149.943 85.1302 150.806 87.4159L149.892 83.0985C149.74 82.4889 149.283 82.3365 148.724 82.3365H144Z" fill="#FFBC00"/>
<path d="M144 82.3365C147.251 83.0985 149.943 85.0794 150.806 87.3651L149.943 83.7588C149.79 83.1492 149.283 82.7937 148.724 82.7937L144 82.3365Z" fill="#F7981D"/>
<path d="M144 82.3365C147.251 83.0985 149.943 85.0794 150.806 87.3651L150.197 85.3842C150.044 84.7746 149.841 84.1651 149.13 83.9112L144 82.3365Z" fill="#ED7C00"/>
<path d="M153.6 88.4318L151.873 86.7048L151.06 88.635L150.857 87.3651C150.4 85.8413 148.927 84.1651 147.302 83.3524L149.587 91.4794H152.33L153.6 88.4318Z" fill="#051244"/>
<path d="M158.324 91.4794L156.14 89.2444L155.733 91.4794H158.324Z" fill="#051244"/>
<path d="M164.165 88.3301C164.368 88.5333 164.47 88.6857 164.419 88.8889C164.419 89.4984 163.606 89.8032 162.895 89.8032C161.879 89.8032 161.321 89.6508 160.457 89.2952L160.102 89.1428L159.746 91.2254C160.356 91.4793 161.473 91.7333 162.641 91.7333C164.267 91.7333 165.587 91.2762 166.349 90.4635L164.165 88.3301Z" fill="#051244"/>
<path d="M167.111 91.4794H169.499L170.006 89.9556H173.257L173.562 91.4794H176L175.137 87.7715L172.089 84.8254L172.241 85.6381C172.241 85.6381 172.749 87.9239 172.851 88.4318H170.718C170.921 87.9239 171.733 85.7397 171.733 85.7397C171.733 85.7397 171.937 85.181 172.089 84.8254" fill="#051244"/>
<path d="M207.477 83.6192C207.471 83.5649 207.423 83.5408 207.386 83.5408C207.35 83.5408 206.56 83.4805 206.56 83.4805C206.56 83.4805 206.011 82.9315 205.945 82.8772C205.884 82.8169 205.77 82.835 205.721 82.8471C205.715 82.8471 205.601 82.8833 205.414 82.9436C205.227 82.4067 204.907 81.9181 204.334 81.9181H204.28C204.123 81.713 203.918 81.6165 203.749 81.6165C202.422 81.6165 201.782 83.2754 201.583 84.1199C201.065 84.2827 200.697 84.3913 200.654 84.4094C200.365 84.4999 200.359 84.5059 200.323 84.7774C200.292 84.9825 199.538 90.8156 199.538 90.8156L205.408 91.9135L208.593 91.2258C208.599 91.2137 207.483 83.6735 207.477 83.6192ZM205.088 83.028C204.943 83.0703 204.768 83.1246 204.593 83.1849V83.0763C204.593 82.7506 204.551 82.4852 204.473 82.274C204.774 82.3102 204.961 82.642 205.088 83.028ZM204.105 82.3404C204.183 82.5455 204.238 82.835 204.238 83.2331V83.2935C203.912 83.396 203.568 83.4986 203.212 83.6132C203.411 82.8531 203.791 82.4791 204.105 82.3404ZM203.719 81.9664C203.779 81.9664 203.839 81.9905 203.888 82.0267C203.459 82.2258 203.007 82.7264 202.82 83.7398C202.536 83.8303 202.265 83.9088 202.006 83.9932C202.223 83.2211 202.766 81.9664 203.719 81.9664Z" fill="#95BF47"/>
<path d="M207.386 83.5288C207.35 83.5288 206.56 83.4685 206.56 83.4685C206.56 83.4685 206.011 82.9195 205.945 82.8652C205.921 82.8411 205.89 82.829 205.866 82.829L205.426 91.9136L208.611 91.2259C208.611 91.2259 207.495 83.6736 207.489 83.6193C207.465 83.565 207.423 83.5408 207.386 83.5288Z" fill="#5E8E3E"/>
<path d="M204.334 85.2901L203.948 86.4543C203.948 86.4543 203.598 86.2673 203.182 86.2673C202.561 86.2673 202.53 86.6594 202.53 86.756C202.53 87.2868 203.918 87.4919 203.918 88.7405C203.918 89.7238 203.297 90.3572 202.458 90.3572C201.445 90.3572 200.938 89.7298 200.938 89.7298L201.209 88.8371C201.209 88.8371 201.74 89.2955 202.187 89.2955C202.482 89.2955 202.603 89.0663 202.603 88.8974C202.603 88.2037 201.469 88.1735 201.469 87.0274C201.469 86.0683 202.156 85.1393 203.55 85.1393C204.069 85.1333 204.334 85.2901 204.334 85.2901Z" fill="white"/>
<path d="M212.309 87.4798C211.989 87.3109 211.826 87.1601 211.826 86.961C211.826 86.7077 212.055 86.5448 212.411 86.5448C212.827 86.5448 213.195 86.7137 213.195 86.7137L213.485 85.827C213.485 85.827 213.219 85.6219 212.435 85.6219C211.343 85.6219 210.583 86.2492 210.583 87.1299C210.583 87.6306 210.939 88.0106 211.41 88.2821C211.796 88.4932 211.929 88.65 211.929 88.8793C211.929 89.1145 211.736 89.3075 211.38 89.3075C210.855 89.3075 210.354 89.0361 210.354 89.0361L210.047 89.9228C210.047 89.9228 210.505 90.2305 211.277 90.2305C212.399 90.2305 213.213 89.6755 213.213 88.6802C213.201 88.1373 212.797 87.7633 212.309 87.4798ZM216.785 85.6098C216.23 85.6098 215.795 85.8752 215.463 86.2734L215.451 86.2673L215.934 83.7579H214.685L213.467 90.1521H214.715L215.132 87.9684C215.295 87.142 215.723 86.6293 216.121 86.6293C216.404 86.6293 216.513 86.8223 216.513 87.0937C216.513 87.2626 216.501 87.4798 216.459 87.6487L215.988 90.1521H217.237L217.726 87.5703C217.78 87.2988 217.816 86.9731 217.816 86.7499C217.81 86.0321 217.442 85.6098 216.785 85.6098ZM220.639 85.6098C219.131 85.6098 218.136 86.9671 218.136 88.4811C218.136 89.4463 218.733 90.2305 219.855 90.2305C221.333 90.2305 222.328 88.9094 222.328 87.3592C222.334 86.4604 221.815 85.6098 220.639 85.6098ZM220.024 89.2774C219.596 89.2774 219.421 88.9155 219.421 88.457C219.421 87.7392 219.789 86.575 220.47 86.575C220.911 86.575 221.061 86.961 221.061 87.329C221.061 88.0951 220.681 89.2774 220.024 89.2774ZM225.531 85.6098C224.687 85.6098 224.21 86.3578 224.21 86.3578H224.198L224.27 85.6882H223.161C223.106 86.1406 223.004 86.8344 222.907 87.3471L222.045 91.9255H223.293L223.643 90.0736H223.673C223.673 90.0736 223.933 90.2365 224.403 90.2365C225.875 90.2365 226.834 88.7285 226.834 87.2083C226.828 86.3638 226.448 85.6098 225.531 85.6098ZM224.337 89.2895C224.011 89.2895 223.818 89.1025 223.818 89.1025L224.023 87.9382C224.168 87.1541 224.578 86.6413 225.012 86.6413C225.399 86.6413 225.513 86.9972 225.513 87.329C225.519 88.1373 225.037 89.2895 224.337 89.2895ZM228.614 83.8183C228.216 83.8183 227.896 84.138 227.896 84.5421C227.896 84.9101 228.131 85.1695 228.487 85.1695H228.499C228.891 85.1695 229.223 84.904 229.229 84.4456C229.235 84.0776 228.988 83.8183 228.614 83.8183ZM226.864 90.146H228.113L228.958 85.7063H227.703L226.864 90.146ZM232.143 85.7003H231.274L231.316 85.4952C231.389 85.0669 231.642 84.6929 232.064 84.6929C232.287 84.6929 232.462 84.7593 232.462 84.7593L232.704 83.776C232.704 83.776 232.492 83.6674 232.022 83.6674C231.582 83.6674 231.135 83.7941 230.797 84.0837C230.369 84.4456 230.17 84.9704 230.073 85.5012L230.037 85.7063H229.452L229.265 86.6534H229.85L229.187 90.1521H230.435L231.099 86.6534H231.962L232.143 85.7003ZM235.153 85.7063C235.153 85.7063 234.368 87.6789 234.025 88.7586H234.013C233.988 88.4088 233.705 85.7063 233.705 85.7063H232.39L233.144 89.772C233.156 89.8625 233.15 89.9168 233.114 89.9771C232.969 90.2606 232.722 90.5321 232.432 90.7311C232.197 90.9 231.931 91.0147 231.72 91.087L232.07 92.1487C232.324 92.0944 232.854 91.8833 233.295 91.4671C233.862 90.9362 234.393 90.1098 234.935 88.9878L236.462 85.7003H235.153V85.7063Z" fill="black"/>
<defs>
<filter id="filter0_b_1_329" x="-10" y="-9.11737" width="282" height="160" filterUnits="userSpaceOnUse" color-interpolation-filters="sRGB">
<feFlood flood-opacity="0" result="BackgroundImageFix"/>
<feGaussianBlur in="BackgroundImageFix" stdDeviation="5"/>
<feComposite in2="SourceAlpha" operator="in" result="effect1_backgroundBlur_1_329"/>
<feBlend mode="normal" in="SourceGraphic" in2="effect1_backgroundBlur_1_329" result="shape"/>
</filter>
<linearGradient id="paint0_linear_1_329" x1="-481.5" y1="-495.617" x2="-121.712" y2="315.869" gradientUnits="userSpaceOnUse">
<stop stop-color="white"/>
<stop offset="0.906032" stop-color="#14101D"/>
</linearGradient>
<linearGradient id="paint1_linear_1_329" x1="20" y1="86.8826" x2="68" y2="86.8826" gradientUnits="userSpaceOnUse">
<stop stop-color="#00F5A0"/>
<stop offset="1" stop-color="#00D9F5"/>
</linearGradient>
<linearGradient id="paint2_linear_1_329" x1="78" y1="86.8826" x2="126" y2="86.8826" gradientUnits="userSpaceOnUse">
<stop stop-color="#00F5A0"/>
<stop offset="1" stop-color="#00D9F5"/>
</linearGradient>
<linearGradient id="paint3_linear_1_329" x1="136" y1="86.8826" x2="184" y2="86.8826" gradientUnits="userSpaceOnUse">
<stop stop-color="#00F5A0"/>
<stop offset="1" stop-color="#00D9F5"/>
</linearGradient>
<linearGradient id="paint4_linear_1_329" x1="194" y1="86.8826" x2="242" y2="86.8826" gradientUnits="userSpaceOnUse">
<stop stop-color="#00F5A0"/>
<stop offset="1" stop-color="#00D9F5"/>
</linearGradient>
<clipPath id="clip0_1_329">
<rect width="24" height="24" fill="white" transform="translate(90 74.8826)"/>
</clipPath>
</defs>
</svg>
