<svg width="191" height="159" viewBox="0 0 191 159" fill="none" xmlns="http://www.w3.org/2000/svg">
<g filter="url(#filter0_b_1_323)">
<rect y="0.882622" width="191" height="158" rx="20" fill="url(#paint0_linear_1_323)"/>
</g>
<rect x="79" y="20.8826" width="34" height="34" rx="10" fill="#00030C"/>
<path d="M29.0274 86.7946C29.0274 87.3706 28.8834 87.904 28.5954 88.3946C28.3074 88.8746 27.8808 89.264 27.3154 89.5626C26.7501 89.8506 26.0621 89.9946 25.2514 89.9946C24.4514 89.9946 23.7368 89.8613 23.1074 89.5946C22.4781 89.3173 21.9714 88.9226 21.5874 88.4106C21.2141 87.8986 21.0008 87.3013 20.9474 86.6186H23.3474C23.4008 87.0773 23.5821 87.4613 23.8914 87.7706C24.2114 88.0693 24.6328 88.2186 25.1554 88.2186C25.6248 88.2186 25.9821 88.096 26.2274 87.8506C26.4834 87.5946 26.6114 87.2693 26.6114 86.8746C26.6114 86.5226 26.5101 86.2346 26.3074 86.0106C26.1048 85.776 25.8488 85.5893 25.5394 85.4506C25.2301 85.312 24.8034 85.152 24.2594 84.9706C23.5554 84.736 22.9794 84.5066 22.5314 84.2826C22.0834 84.048 21.6994 83.712 21.3794 83.2746C21.0701 82.8373 20.9154 82.2666 20.9154 81.5626C20.9154 80.592 21.2621 79.8293 21.9554 79.2746C22.6594 78.7093 23.5874 78.4266 24.7394 78.4266C25.9341 78.4266 26.8834 78.7146 27.5874 79.2906C28.3021 79.8666 28.7074 80.6346 28.8034 81.5946H26.3714C26.3074 81.1893 26.1368 80.8586 25.8594 80.6026C25.5821 80.336 25.2034 80.2026 24.7234 80.2026C24.3074 80.2026 23.9714 80.3146 23.7154 80.5386C23.4594 80.752 23.3314 81.0666 23.3314 81.4826C23.3314 81.8133 23.4274 82.0906 23.6194 82.3146C23.8221 82.528 24.0728 82.704 24.3714 82.8426C24.6808 82.9813 25.0968 83.136 25.6194 83.3066C26.3448 83.5626 26.9314 83.8026 27.3794 84.0266C27.8381 84.2506 28.2274 84.5866 28.5474 85.0346C28.8674 85.4826 29.0274 86.0693 29.0274 86.7946ZM34.8333 80.9066C35.9746 80.9066 36.924 81.216 37.6813 81.8346C38.4493 82.4533 38.9293 83.296 39.1213 84.3626H36.7373C36.6413 83.8933 36.4226 83.5253 36.0813 83.2586C35.74 82.9813 35.308 82.8426 34.7853 82.8426C34.188 82.8426 33.6866 83.0666 33.2813 83.5146C32.8866 83.952 32.6893 84.5973 32.6893 85.4506C32.6893 86.304 32.8866 86.9546 33.2813 87.4026C33.6866 87.84 34.188 88.0586 34.7853 88.0586C35.308 88.0586 35.74 87.9253 36.0813 87.6586C36.4226 87.3813 36.6413 87.008 36.7373 86.5386H39.1213C38.9293 87.6053 38.4493 88.448 37.6813 89.0666C36.924 89.6853 35.9746 89.9946 34.8333 89.9946C33.9693 89.9946 33.2013 89.8133 32.5293 89.4506C31.8573 89.0773 31.3346 88.5493 30.9613 87.8666C30.588 87.184 30.4013 86.3786 30.4013 85.4506C30.4013 84.5226 30.588 83.7173 30.9613 83.0346C31.3346 82.3413 31.8573 81.8133 32.5293 81.4506C33.2013 81.088 33.9693 80.9066 34.8333 80.9066ZM44.3563 80.9066C45.103 80.9066 45.743 81.0826 46.2763 81.4346C46.8096 81.7866 47.1883 82.2613 47.4123 82.8586V81.0186H49.6523V89.8826H47.4123V88.0266C47.1883 88.624 46.8096 89.104 46.2763 89.4666C45.743 89.8186 45.103 89.9946 44.3563 89.9946C43.6096 89.9946 42.9376 89.8133 42.3403 89.4506C41.743 89.088 41.2736 88.5653 40.9323 87.8826C40.6016 87.1893 40.4363 86.3786 40.4363 85.4506C40.4363 84.5226 40.6016 83.7173 40.9323 83.0346C41.2736 82.3413 41.743 81.8133 42.3403 81.4506C42.9376 81.088 43.6096 80.9066 44.3563 80.9066ZM45.0603 82.8746C44.3563 82.8746 43.791 83.104 43.3643 83.5626C42.9376 84.0213 42.7243 84.6506 42.7243 85.4506C42.7243 86.2506 42.9376 86.88 43.3643 87.3386C43.791 87.7866 44.3563 88.0106 45.0603 88.0106C45.743 88.0106 46.303 87.7813 46.7403 87.3226C47.1883 86.8533 47.4123 86.2293 47.4123 85.4506C47.4123 84.6613 47.1883 84.0373 46.7403 83.5786C46.303 83.1093 45.743 82.8746 45.0603 82.8746ZM57.1368 80.8906C58.1608 80.8906 58.9768 81.2266 59.5848 81.8986C60.1928 82.5706 60.4968 83.5146 60.4968 84.7306V89.8826H58.2568V84.9866C58.2568 84.2826 58.0755 83.7386 57.7128 83.3546C57.3501 82.96 56.8541 82.7626 56.2248 82.7626C55.5848 82.7626 55.0728 82.9706 54.6888 83.3866C54.3048 83.8026 54.1128 84.4 54.1128 85.1786V89.8826H51.8568V81.0186H54.1128V82.7946C54.3475 82.1973 54.7315 81.7333 55.2648 81.4026C55.8088 81.0613 56.4328 80.8906 57.1368 80.8906ZM71.3902 78.4746C72.7982 78.4746 73.9662 78.8373 74.8942 79.5626C75.8222 80.288 76.4355 81.2746 76.7342 82.5226H74.3662C74.1209 81.9146 73.7369 81.4346 73.2142 81.0826C72.7022 80.7306 72.0835 80.5546 71.3582 80.5546C70.7609 80.5546 70.2222 80.704 69.7422 81.0026C69.2622 81.3013 68.8889 81.728 68.6222 82.2826C68.3555 82.8373 68.2222 83.488 68.2222 84.2346C68.2222 84.9706 68.3555 85.616 68.6222 86.1706C68.8889 86.7253 69.2622 87.152 69.7422 87.4506C70.2222 87.7493 70.7609 87.8986 71.3582 87.8986C72.0835 87.8986 72.7022 87.7226 73.2142 87.3706C73.7369 87.0186 74.1209 86.5386 74.3662 85.9306H76.7342C76.4355 87.1786 75.8222 88.1653 74.8942 88.8906C73.9662 89.616 72.7982 89.9786 71.3902 89.9786C70.3129 89.9786 69.3582 89.7386 68.5262 89.2586C67.7049 88.768 67.0649 88.0853 66.6062 87.2106C66.1582 86.336 65.9342 85.344 65.9342 84.2346C65.9342 83.1146 66.1582 82.1173 66.6062 81.2426C67.0649 80.368 67.7049 79.6906 68.5262 79.2106C69.3475 78.72 70.3022 78.4746 71.3902 78.4746ZM80.8428 82.7146C81.1735 82.1493 81.6108 81.7066 82.1548 81.3866C82.6988 81.056 83.3068 80.8906 83.9788 80.8906V83.3066H83.3228C81.6695 83.3066 80.8428 84.0746 80.8428 85.6106V89.8826H78.5868V81.0186H80.8428V82.7146ZM93.7234 85.1146C93.7234 85.3386 93.6968 85.5946 93.6434 85.8826H87.1474C87.1794 86.672 87.3928 87.2533 87.7874 87.6266C88.1821 88 88.6728 88.1866 89.2594 88.1866C89.7821 88.1866 90.2141 88.0586 90.5554 87.8026C90.9074 87.5466 91.1314 87.2 91.2274 86.7626H93.6114C93.4941 87.3813 93.2434 87.936 92.8594 88.4266C92.4754 88.9173 91.9794 89.3013 91.3714 89.5786C90.7741 89.856 90.1074 89.9946 89.3714 89.9946C88.5074 89.9946 87.7394 89.8133 87.0674 89.4506C86.3954 89.0773 85.8728 88.5493 85.4994 87.8666C85.1261 87.184 84.9394 86.3786 84.9394 85.4506C84.9394 84.5226 85.1261 83.7173 85.4994 83.0346C85.8728 82.3413 86.3954 81.8133 87.0674 81.4506C87.7394 81.088 88.5074 80.9066 89.3714 80.9066C90.2461 80.9066 91.0088 81.088 91.6594 81.4506C92.3208 81.8133 92.8274 82.3146 93.1794 82.9546C93.5421 83.584 93.7234 84.304 93.7234 85.1146ZM91.4514 84.8906C91.4834 84.1653 91.2914 83.616 90.8754 83.2426C90.4701 82.8693 89.9688 82.6826 89.3714 82.6826C88.7634 82.6826 88.2514 82.8693 87.8354 83.2426C87.4194 83.616 87.1901 84.1653 87.1474 84.8906H91.4514ZM98.9569 80.9066C99.7036 80.9066 100.338 81.0826 100.861 81.4346C101.394 81.7866 101.778 82.2613 102.013 82.8586V78.0426H104.253V89.8826H102.013V88.0266C101.778 88.624 101.394 89.104 100.861 89.4666C100.338 89.8186 99.7036 89.9946 98.9569 89.9946C98.2103 89.9946 97.5383 89.8133 96.9409 89.4506C96.3436 89.088 95.8743 88.5653 95.5329 87.8826C95.2023 87.1893 95.0369 86.3786 95.0369 85.4506C95.0369 84.5226 95.2023 83.7173 95.5329 83.0346C95.8743 82.3413 96.3436 81.8133 96.9409 81.4506C97.5383 81.088 98.2103 80.9066 98.9569 80.9066ZM99.6609 82.8746C98.9569 82.8746 98.3916 83.104 97.9649 83.5626C97.5383 84.0213 97.3249 84.6506 97.3249 85.4506C97.3249 86.2506 97.5383 86.88 97.9649 87.3386C98.3916 87.7866 98.9569 88.0106 99.6609 88.0106C100.344 88.0106 100.904 87.7813 101.341 87.3226C101.789 86.8533 102.013 86.2293 102.013 85.4506C102.013 84.6613 101.789 84.0373 101.341 83.5786C100.904 83.1093 100.344 82.8746 99.6609 82.8746ZM106.201 78.4746C106.201 78.112 106.329 77.8186 106.585 77.5946C106.841 77.36 107.177 77.2426 107.593 77.2426C108.009 77.2426 108.345 77.36 108.601 77.5946C108.857 77.8186 108.985 78.112 108.985 78.4746C108.985 78.8266 108.857 79.12 108.601 79.3546C108.345 79.5786 108.009 79.6906 107.593 79.6906C107.177 79.6906 106.841 79.5786 106.585 79.3546C106.329 79.12 106.201 78.8266 106.201 78.4746ZM108.713 81.0186V89.8826H106.457V81.0186H108.713ZM115.65 87.9466V89.8826H114.466C113.474 89.8826 112.712 89.6426 112.178 89.1626C111.656 88.6826 111.394 87.8826 111.394 86.7626V82.9226H110.162V81.0186H111.394V78.8266H113.65V81.0186H115.634V82.9226H113.65V86.7946C113.65 87.2213 113.736 87.52 113.906 87.6906C114.077 87.8613 114.365 87.9466 114.77 87.9466H115.65ZM126.182 78.4746C127.59 78.4746 128.758 78.8373 129.686 79.5626C130.614 80.288 131.227 81.2746 131.526 82.5226H129.158C128.913 81.9146 128.529 81.4346 128.006 81.0826C127.494 80.7306 126.875 80.5546 126.15 80.5546C125.553 80.5546 125.014 80.704 124.534 81.0026C124.054 81.3013 123.681 81.728 123.414 82.2826C123.147 82.8373 123.014 83.488 123.014 84.2346C123.014 84.9706 123.147 85.616 123.414 86.1706C123.681 86.7253 124.054 87.152 124.534 87.4506C125.014 87.7493 125.553 87.8986 126.15 87.8986C126.875 87.8986 127.494 87.7226 128.006 87.3706C128.529 87.0186 128.913 86.5386 129.158 85.9306H131.526C131.227 87.1786 130.614 88.1653 129.686 88.8906C128.758 89.616 127.59 89.9786 126.182 89.9786C125.105 89.9786 124.15 89.7386 123.318 89.2586C122.497 88.768 121.857 88.0853 121.398 87.2106C120.95 86.336 120.726 85.344 120.726 84.2346C120.726 83.1146 120.95 82.1173 121.398 81.2426C121.857 80.368 122.497 79.6906 123.318 79.2106C124.139 78.72 125.094 78.4746 126.182 78.4746ZM136.851 80.9066C137.597 80.9066 138.237 81.0826 138.771 81.4346C139.304 81.7866 139.683 82.2613 139.907 82.8586V81.0186H142.147V89.8826H139.907V88.0266C139.683 88.624 139.304 89.104 138.771 89.4666C138.237 89.8186 137.597 89.9946 136.851 89.9946C136.104 89.9946 135.432 89.8133 134.835 89.4506C134.237 89.088 133.768 88.5653 133.427 87.8826C133.096 87.1893 132.931 86.3786 132.931 85.4506C132.931 84.5226 133.096 83.7173 133.427 83.0346C133.768 82.3413 134.237 81.8133 134.835 81.4506C135.432 81.088 136.104 80.9066 136.851 80.9066ZM137.555 82.8746C136.851 82.8746 136.285 83.104 135.859 83.5626C135.432 84.0213 135.219 84.6506 135.219 85.4506C135.219 86.2506 135.432 86.88 135.859 87.3386C136.285 87.7866 136.851 88.0106 137.555 88.0106C138.237 88.0106 138.797 87.7813 139.235 87.3226C139.683 86.8533 139.907 86.2293 139.907 85.4506C139.907 84.6613 139.683 84.0373 139.235 83.5786C138.797 83.1093 138.237 82.8746 137.555 82.8746ZM146.607 82.7146C146.938 82.1493 147.375 81.7066 147.919 81.3866C148.463 81.056 149.071 80.8906 149.743 80.8906V83.3066H149.087C147.434 83.3066 146.607 84.0746 146.607 85.6106V89.8826H144.351V81.0186H146.607V82.7146ZM154.624 80.9066C155.37 80.9066 156.005 81.0826 156.528 81.4346C157.061 81.7866 157.445 82.2613 157.68 82.8586V78.0426H159.92V89.8826H157.68V88.0266C157.445 88.624 157.061 89.104 156.528 89.4666C156.005 89.8186 155.37 89.9946 154.624 89.9946C153.877 89.9946 153.205 89.8133 152.608 89.4506C152.01 89.088 151.541 88.5653 151.2 87.8826C150.869 87.1893 150.704 86.3786 150.704 85.4506C150.704 84.5226 150.869 83.7173 151.2 83.0346C151.541 82.3413 152.01 81.8133 152.608 81.4506C153.205 81.088 153.877 80.9066 154.624 80.9066ZM155.328 82.8746C154.624 82.8746 154.058 83.104 153.632 83.5626C153.205 84.0213 152.992 84.6506 152.992 85.4506C152.992 86.2506 153.205 86.88 153.632 87.3386C154.058 87.7866 154.624 88.0106 155.328 88.0106C156.01 88.0106 156.57 87.7813 157.008 87.3226C157.456 86.8533 157.68 86.2293 157.68 85.4506C157.68 84.6613 157.456 84.0373 157.008 83.5786C156.57 83.1093 156.01 82.8746 155.328 82.8746ZM165.18 80.9066C166.258 80.9066 167.122 81.1786 167.772 81.7226C168.423 82.2666 168.828 82.992 168.988 83.8986H166.876C166.791 83.472 166.599 83.1306 166.3 82.8746C166.002 82.6186 165.612 82.4906 165.132 82.4906C164.748 82.4906 164.45 82.5813 164.236 82.7626C164.023 82.944 163.916 83.1893 163.916 83.4986C163.916 83.744 164.002 83.9413 164.172 84.0906C164.343 84.24 164.556 84.3573 164.812 84.4426C165.068 84.528 165.436 84.6293 165.916 84.7466C166.588 84.896 167.132 85.056 167.548 85.2266C167.975 85.3866 168.338 85.648 168.636 86.0106C168.946 86.3626 169.1 86.8426 169.1 87.4506C169.1 88.208 168.802 88.8213 168.204 89.2906C167.618 89.76 166.823 89.9946 165.82 89.9946C164.668 89.9946 163.746 89.7386 163.052 89.2266C162.359 88.704 161.938 87.9626 161.788 87.0026H163.948C164.002 87.44 164.194 87.7866 164.524 88.0426C164.855 88.288 165.287 88.4106 165.82 88.4106C166.204 88.4106 166.498 88.32 166.7 88.1386C166.903 87.9466 167.004 87.7013 167.004 87.4026C167.004 87.1466 166.914 86.9386 166.732 86.7786C166.562 86.6186 166.343 86.496 166.076 86.4106C165.82 86.3253 165.452 86.224 164.972 86.1066C164.311 85.9573 163.772 85.808 163.356 85.6586C162.951 85.4986 162.599 85.248 162.3 84.9066C162.012 84.5653 161.868 84.096 161.868 83.4986C161.868 82.7306 162.162 82.1066 162.748 81.6266C163.335 81.1466 164.146 80.9066 165.18 80.9066Z" fill="white"/>
<path d="M30.639 112.687C30.639 113.087 30.543 113.459 30.351 113.803C30.159 114.147 29.867 114.427 29.475 114.643C29.083 114.859 28.599 114.967 28.023 114.967C27.463 114.967 26.963 114.867 26.523 114.667C26.091 114.459 25.743 114.179 25.479 113.827C25.223 113.467 25.075 113.059 25.035 112.603H26.199C26.223 112.843 26.303 113.079 26.439 113.311C26.583 113.535 26.783 113.723 27.039 113.875C27.303 114.019 27.619 114.091 27.987 114.091C28.467 114.091 28.835 113.963 29.091 113.707C29.347 113.451 29.475 113.123 29.475 112.723C29.475 112.379 29.383 112.099 29.199 111.883C29.023 111.667 28.803 111.499 28.539 111.379C28.275 111.251 27.915 111.115 27.459 110.971C26.923 110.795 26.491 110.631 26.163 110.479C25.843 110.319 25.567 110.083 25.335 109.771C25.111 109.459 24.999 109.047 24.999 108.535C24.999 108.095 25.103 107.707 25.311 107.371C25.527 107.035 25.831 106.775 26.223 106.591C26.623 106.407 27.091 106.315 27.627 106.315C28.459 106.315 29.119 106.519 29.607 106.927C30.095 107.327 30.379 107.839 30.459 108.463H29.283C29.219 108.127 29.047 107.831 28.767 107.575C28.487 107.319 28.107 107.191 27.627 107.191C27.187 107.191 26.835 107.307 26.571 107.539C26.307 107.763 26.175 108.083 26.175 108.499C26.175 108.827 26.259 109.095 26.427 109.303C26.603 109.503 26.819 109.663 27.075 109.783C27.331 109.895 27.683 110.023 28.131 110.167C28.675 110.343 29.111 110.511 29.439 110.671C29.775 110.831 30.059 111.075 30.291 111.403C30.523 111.723 30.639 112.151 30.639 112.687ZM35.1433 108.211C35.9833 108.211 36.6793 108.435 37.2313 108.883C37.7833 109.331 38.1233 109.931 38.2513 110.683H37.0993C37.0193 110.211 36.7993 109.843 36.4393 109.579C36.0873 109.307 35.6473 109.171 35.1193 109.171C34.7353 109.171 34.3833 109.259 34.0633 109.435C33.7513 109.611 33.4993 109.883 33.3073 110.251C33.1153 110.611 33.0193 111.059 33.0193 111.595C33.0193 112.131 33.1153 112.583 33.3073 112.951C33.4993 113.311 33.7513 113.579 34.0633 113.755C34.3833 113.931 34.7353 114.019 35.1193 114.019C35.6473 114.019 36.0873 113.883 36.4393 113.611C36.7993 113.339 37.0193 112.967 37.0993 112.495H38.2513C38.1233 113.255 37.7833 113.859 37.2313 114.307C36.6793 114.747 35.9833 114.967 35.1433 114.967C34.5113 114.967 33.9513 114.831 33.4633 114.559C32.9753 114.287 32.5913 113.899 32.3113 113.395C32.0393 112.883 31.9033 112.283 31.9033 111.595C31.9033 110.907 32.0393 110.307 32.3113 109.795C32.5913 109.283 32.9753 108.891 33.4633 108.619C33.9513 108.347 34.5113 108.211 35.1433 108.211ZM42.5005 108.211C43.1405 108.211 43.6805 108.371 44.1205 108.691C44.5685 109.011 44.8805 109.439 45.0565 109.975V108.295H46.1485V114.883H45.0565V113.203C44.8805 113.739 44.5685 114.167 44.1205 114.487C43.6805 114.807 43.1405 114.967 42.5005 114.967C41.9165 114.967 41.3965 114.831 40.9405 114.559C40.4845 114.287 40.1245 113.899 39.8605 113.395C39.6045 112.883 39.4765 112.283 39.4765 111.595C39.4765 110.907 39.6045 110.307 39.8605 109.795C40.1245 109.283 40.4845 108.891 40.9405 108.619C41.3965 108.347 41.9165 108.211 42.5005 108.211ZM42.8125 109.183C42.1405 109.183 41.6005 109.399 41.1925 109.831C40.7925 110.255 40.5925 110.843 40.5925 111.595C40.5925 112.347 40.7925 112.939 41.1925 113.371C41.6005 113.795 42.1405 114.007 42.8125 114.007C43.2445 114.007 43.6285 113.907 43.9645 113.707C44.3085 113.507 44.5765 113.227 44.7685 112.867C44.9605 112.499 45.0565 112.075 45.0565 111.595C45.0565 111.115 44.9605 110.691 44.7685 110.323C44.5765 109.955 44.3085 109.675 43.9645 109.483C43.6285 109.283 43.2445 109.183 42.8125 109.183ZM51.4744 108.187C52.2424 108.187 52.8624 108.435 53.3344 108.931C53.8064 109.419 54.0424 110.127 54.0424 111.055V114.883H52.9504V111.151C52.9504 110.495 52.7824 109.991 52.4464 109.639C52.1104 109.287 51.6544 109.111 51.0784 109.111C50.4784 109.111 49.9984 109.307 49.6384 109.699C49.2784 110.083 49.0984 110.647 49.0984 111.391V114.883H48.0064V108.295H49.0984V109.855C49.2664 109.319 49.5624 108.907 49.9864 108.619C50.4184 108.331 50.9144 108.187 51.4744 108.187ZM59.3782 108.295L61.5142 113.479L63.4942 108.295H64.7062L60.7942 118.003H59.5582L60.9262 114.775L58.1542 108.295H59.3782ZM68.8153 108.211C69.4473 108.211 70.0113 108.347 70.5073 108.619C71.0113 108.891 71.4033 109.283 71.6833 109.795C71.9713 110.307 72.1153 110.907 72.1153 111.595C72.1153 112.283 71.9713 112.883 71.6833 113.395C71.4033 113.899 71.0113 114.287 70.5073 114.559C70.0113 114.831 69.4473 114.967 68.8153 114.967C68.1833 114.967 67.6153 114.831 67.1113 114.559C66.6153 114.287 66.2233 113.899 65.9353 113.395C65.6473 112.883 65.5033 112.283 65.5033 111.595C65.5033 110.907 65.6473 110.307 65.9353 109.795C66.2233 109.283 66.6153 108.891 67.1113 108.619C67.6153 108.347 68.1833 108.211 68.8153 108.211ZM68.8153 109.171C68.4233 109.171 68.0593 109.259 67.7233 109.435C67.3953 109.611 67.1273 109.883 66.9193 110.251C66.7193 110.611 66.6193 111.059 66.6193 111.595C66.6193 112.123 66.7193 112.571 66.9193 112.939C67.1273 113.299 67.3953 113.567 67.7233 113.743C68.0593 113.919 68.4233 114.007 68.8153 114.007C69.2073 114.007 69.5673 113.919 69.8953 113.743C70.2313 113.567 70.4993 113.299 70.6993 112.939C70.9073 112.571 71.0113 112.123 71.0113 111.595C71.0113 111.059 70.9073 110.611 70.6993 110.251C70.4993 109.883 70.2313 109.611 69.8953 109.435C69.5673 109.259 69.2073 109.171 68.8153 109.171ZM79.5143 108.295V114.883H78.4223V113.335C78.2543 113.871 77.9543 114.283 77.5223 114.571C77.0983 114.851 76.6023 114.991 76.0343 114.991C75.2743 114.991 74.6583 114.747 74.1863 114.259C73.7143 113.763 73.4783 113.055 73.4783 112.135V108.295H74.5703V112.027C74.5703 112.683 74.7383 113.191 75.0743 113.551C75.4103 113.903 75.8663 114.079 76.4423 114.079C77.0423 114.079 77.5223 113.887 77.8823 113.503C78.2423 113.111 78.4223 112.543 78.4223 111.799V108.295H79.5143ZM82.4757 109.627C82.6917 109.171 83.0077 108.819 83.4237 108.571C83.8397 108.315 84.3357 108.187 84.9117 108.187V109.375H84.5757C83.9597 109.375 83.4557 109.535 83.0637 109.855C82.6717 110.167 82.4757 110.687 82.4757 111.415V114.883H81.3837V108.295H82.4757V109.627ZM89.0252 108.211C89.8652 108.211 90.5612 108.435 91.1132 108.883C91.6652 109.331 92.0052 109.931 92.1332 110.683H90.9812C90.9012 110.211 90.6812 109.843 90.3212 109.579C89.9692 109.307 89.5292 109.171 89.0012 109.171C88.6172 109.171 88.2652 109.259 87.9452 109.435C87.6332 109.611 87.3812 109.883 87.1892 110.251C86.9972 110.611 86.9012 111.059 86.9012 111.595C86.9012 112.131 86.9972 112.583 87.1892 112.951C87.3812 113.311 87.6332 113.579 87.9452 113.755C88.2652 113.931 88.6172 114.019 89.0012 114.019C89.5292 114.019 89.9692 113.883 90.3212 113.611C90.6812 113.339 90.9012 112.967 90.9812 112.495H92.1332C92.0052 113.255 91.6652 113.859 91.1132 114.307C90.5612 114.747 89.8652 114.967 89.0252 114.967C88.3932 114.967 87.8332 114.831 87.3452 114.559C86.8572 114.287 86.4732 113.899 86.1932 113.395C85.9212 112.883 85.7852 112.283 85.7852 111.595C85.7852 110.907 85.9212 110.307 86.1932 109.795C86.4732 109.283 86.8572 108.891 87.3452 108.619C87.8332 108.347 88.3932 108.211 89.0252 108.211ZM94.7743 109.627C94.9903 109.171 95.3063 108.819 95.7223 108.571C96.1383 108.315 96.6343 108.187 97.2103 108.187V109.375H96.8743C96.2583 109.375 95.7543 109.535 95.3623 109.855C94.9703 110.167 94.7743 110.687 94.7743 111.415V114.883H93.6823V108.295H94.7743V109.627ZM104.468 111.223C104.468 111.455 104.452 111.655 104.42 111.823H99.1518C99.1758 112.575 99.3878 113.139 99.7878 113.515C100.196 113.891 100.692 114.079 101.276 114.079C101.804 114.079 102.244 113.947 102.596 113.683C102.956 113.411 103.176 113.051 103.256 112.603H104.42C104.34 113.059 104.16 113.467 103.88 113.827C103.608 114.187 103.252 114.467 102.812 114.667C102.372 114.867 101.876 114.967 101.324 114.967C100.692 114.967 100.132 114.831 99.6438 114.559C99.1558 114.287 98.7718 113.899 98.4918 113.395C98.2198 112.883 98.0838 112.283 98.0838 111.595C98.0838 110.907 98.2198 110.307 98.4918 109.795C98.7718 109.283 99.1558 108.891 99.6438 108.619C100.132 108.347 100.692 108.211 101.324 108.211C101.964 108.211 102.52 108.347 102.992 108.619C103.472 108.891 103.836 109.255 104.084 109.711C104.34 110.167 104.468 110.671 104.468 111.223ZM103.364 111.295C103.388 110.807 103.308 110.399 103.124 110.071C102.94 109.743 102.688 109.499 102.368 109.339C102.048 109.179 101.7 109.099 101.324 109.099C100.724 109.099 100.22 109.287 99.8118 109.663C99.4038 110.031 99.1838 110.575 99.1518 111.295H103.364ZM108.716 108.211C109.356 108.211 109.896 108.371 110.336 108.691C110.784 109.011 111.096 109.439 111.272 109.975V106.003H112.364V114.883H111.272V113.203C111.096 113.739 110.784 114.167 110.336 114.487C109.896 114.807 109.356 114.967 108.716 114.967C108.132 114.967 107.612 114.831 107.156 114.559C106.7 114.287 106.34 113.899 106.076 113.395C105.82 112.883 105.692 112.283 105.692 111.595C105.692 110.907 105.82 110.307 106.076 109.795C106.34 109.283 106.7 108.891 107.156 108.619C107.612 108.347 108.132 108.211 108.716 108.211ZM109.028 109.183C108.356 109.183 107.816 109.399 107.408 109.831C107.008 110.255 106.808 110.843 106.808 111.595C106.808 112.347 107.008 112.939 107.408 113.371C107.816 113.795 108.356 114.007 109.028 114.007C109.46 114.007 109.844 113.907 110.18 113.707C110.524 113.507 110.792 113.227 110.984 112.867C111.176 112.499 111.272 112.075 111.272 111.595C111.272 111.115 111.176 110.691 110.984 110.323C110.792 109.955 110.524 109.675 110.18 109.483C109.844 109.283 109.46 109.183 109.028 109.183ZM114.03 106.363C114.03 106.163 114.098 106.003 114.234 105.883C114.37 105.755 114.55 105.691 114.774 105.691C114.998 105.691 115.178 105.755 115.314 105.883C115.45 106.003 115.518 106.163 115.518 106.363C115.518 106.563 115.45 106.727 115.314 106.855C115.178 106.975 114.998 107.035 114.774 107.035C114.55 107.035 114.37 106.975 114.234 106.855C114.098 106.727 114.03 106.563 114.03 106.363ZM115.314 108.295V114.883H114.222V108.295H115.314ZM120.334 113.923V114.883H119.518C118.846 114.883 118.342 114.723 118.006 114.403C117.678 114.083 117.514 113.547 117.514 112.795V109.243H116.53V108.295H117.514V106.651H118.618V108.295H120.322V109.243H118.618V112.819C118.618 113.243 118.694 113.535 118.846 113.695C119.006 113.847 119.278 113.923 119.662 113.923H120.334ZM127.787 108.211C128.627 108.211 129.323 108.435 129.875 108.883C130.427 109.331 130.767 109.931 130.895 110.683H129.743C129.663 110.211 129.443 109.843 129.083 109.579C128.731 109.307 128.291 109.171 127.763 109.171C127.379 109.171 127.027 109.259 126.707 109.435C126.395 109.611 126.143 109.883 125.951 110.251C125.759 110.611 125.663 111.059 125.663 111.595C125.663 112.131 125.759 112.583 125.951 112.951C126.143 113.311 126.395 113.579 126.707 113.755C127.027 113.931 127.379 114.019 127.763 114.019C128.291 114.019 128.731 113.883 129.083 113.611C129.443 113.339 129.663 112.967 129.743 112.495H130.895C130.767 113.255 130.427 113.859 129.875 114.307C129.323 114.747 128.627 114.967 127.787 114.967C127.155 114.967 126.595 114.831 126.107 114.559C125.619 114.287 125.235 113.899 124.955 113.395C124.683 112.883 124.547 112.283 124.547 111.595C124.547 110.907 124.683 110.307 124.955 109.795C125.235 109.283 125.619 108.891 126.107 108.619C126.595 108.347 127.155 108.211 127.787 108.211ZM135.144 108.211C135.784 108.211 136.324 108.371 136.764 108.691C137.212 109.011 137.524 109.439 137.7 109.975V108.295H138.792V114.883H137.7V113.203C137.524 113.739 137.212 114.167 136.764 114.487C136.324 114.807 135.784 114.967 135.144 114.967C134.56 114.967 134.04 114.831 133.584 114.559C133.128 114.287 132.768 113.899 132.504 113.395C132.248 112.883 132.12 112.283 132.12 111.595C132.12 110.907 132.248 110.307 132.504 109.795C132.768 109.283 133.128 108.891 133.584 108.619C134.04 108.347 134.56 108.211 135.144 108.211ZM135.456 109.183C134.784 109.183 134.244 109.399 133.836 109.831C133.436 110.255 133.236 110.843 133.236 111.595C133.236 112.347 133.436 112.939 133.836 113.371C134.244 113.795 134.784 114.007 135.456 114.007C135.888 114.007 136.272 113.907 136.608 113.707C136.952 113.507 137.22 113.227 137.412 112.867C137.604 112.499 137.7 112.075 137.7 111.595C137.7 111.115 137.604 110.691 137.412 110.323C137.22 109.955 136.952 109.675 136.608 109.483C136.272 109.283 135.888 109.183 135.456 109.183ZM141.742 109.627C141.958 109.171 142.274 108.819 142.69 108.571C143.106 108.315 143.602 108.187 144.178 108.187V109.375H143.842C143.226 109.375 142.722 109.535 142.33 109.855C141.938 110.167 141.742 110.687 141.742 111.415V114.883H140.65V108.295H141.742V109.627ZM148.076 108.211C148.716 108.211 149.256 108.371 149.696 108.691C150.144 109.011 150.456 109.439 150.632 109.975V106.003H151.724V114.883H150.632V113.203C150.456 113.739 150.144 114.167 149.696 114.487C149.256 114.807 148.716 114.967 148.076 114.967C147.492 114.967 146.972 114.831 146.516 114.559C146.06 114.287 145.7 113.899 145.436 113.395C145.18 112.883 145.052 112.283 145.052 111.595C145.052 110.907 145.18 110.307 145.436 109.795C145.7 109.283 146.06 108.891 146.516 108.619C146.972 108.347 147.492 108.211 148.076 108.211ZM148.388 109.183C147.716 109.183 147.176 109.399 146.768 109.831C146.368 110.255 146.168 110.843 146.168 111.595C146.168 112.347 146.368 112.939 146.768 113.371C147.176 113.795 147.716 114.007 148.388 114.007C148.82 114.007 149.204 113.907 149.54 113.707C149.884 113.507 150.152 113.227 150.344 112.867C150.536 112.499 150.632 112.075 150.632 111.595C150.632 111.115 150.536 110.691 150.344 110.323C150.152 109.955 149.884 109.675 149.54 109.483C149.204 109.283 148.82 109.183 148.388 109.183ZM156.474 106.363C156.474 106.163 156.542 106.003 156.678 105.883C156.814 105.755 156.994 105.691 157.218 105.691C157.442 105.691 157.622 105.755 157.758 105.883C157.894 106.003 157.962 106.163 157.962 106.363C157.962 106.563 157.894 106.727 157.758 106.855C157.622 106.975 157.442 107.035 157.218 107.035C156.994 107.035 156.814 106.975 156.678 106.855C156.542 106.727 156.474 106.563 156.474 106.363ZM157.758 108.295V114.883H156.666V108.295H157.758ZM163.102 108.187C163.87 108.187 164.49 108.435 164.962 108.931C165.434 109.419 165.67 110.127 165.67 111.055V114.883H164.578V111.151C164.578 110.495 164.41 109.991 164.074 109.639C163.738 109.287 163.282 109.111 162.706 109.111C162.106 109.111 161.626 109.307 161.266 109.699C160.906 110.083 160.726 110.647 160.726 111.391V114.883H159.634V108.295H160.726V109.855C160.894 109.319 161.19 108.907 161.614 108.619C162.046 108.331 162.542 108.187 163.102 108.187ZM64.7636 131.939V131.027L69.1076 125.363H70.2836V130.991H71.5316V131.939H70.2836V133.883H69.1796V131.939H64.7636ZM69.2516 126.695L65.9156 130.991H69.2516V126.695ZM84.0139 127.187C84.7819 127.187 85.3979 127.435 85.8619 127.931C86.3339 128.419 86.5699 129.127 86.5699 130.055V133.883H85.4779V130.151C85.4779 129.503 85.3179 129.007 84.9979 128.663C84.6859 128.319 84.2539 128.147 83.7019 128.147C83.1259 128.147 82.6619 128.339 82.3099 128.723C81.9659 129.099 81.7939 129.655 81.7939 130.391V133.883H80.7019V130.151C80.7019 129.503 80.5419 129.007 80.2219 128.663C79.9019 128.319 79.4699 128.147 78.9259 128.147C78.3419 128.147 77.8739 128.339 77.5219 128.723C77.1779 129.099 77.0059 129.655 77.0059 130.391V133.883H75.9139V127.295H77.0059V128.795C77.1659 128.275 77.4499 127.879 77.8579 127.607C78.2739 127.327 78.7499 127.187 79.2859 127.187C79.8459 127.187 80.3299 127.331 80.7379 127.619C81.1539 127.899 81.4499 128.315 81.6259 128.867C81.8099 128.331 82.1179 127.919 82.5499 127.631C82.9819 127.335 83.4699 127.187 84.0139 127.187ZM88.1935 125.363C88.1935 125.163 88.2615 125.003 88.3975 124.883C88.5335 124.755 88.7135 124.691 88.9375 124.691C89.1615 124.691 89.3415 124.755 89.4775 124.883C89.6135 125.003 89.6815 125.163 89.6815 125.363C89.6815 125.563 89.6135 125.727 89.4775 125.855C89.3415 125.975 89.1615 126.035 88.9375 126.035C88.7135 126.035 88.5335 125.975 88.3975 125.855C88.2615 125.727 88.1935 125.563 88.1935 125.363ZM89.4775 127.295V133.883H88.3855V127.295H89.4775ZM94.8211 127.187C95.5891 127.187 96.2091 127.435 96.6811 127.931C97.1531 128.419 97.3891 129.127 97.3891 130.055V133.883H96.2971V130.151C96.2971 129.495 96.1291 128.991 95.7931 128.639C95.4571 128.287 95.0011 128.111 94.4251 128.111C93.8251 128.111 93.3451 128.307 92.9851 128.699C92.6251 129.083 92.4451 129.647 92.4451 130.391V133.883H91.3531V127.295H92.4451V128.855C92.6131 128.319 92.9091 127.907 93.3331 127.619C93.7651 127.331 94.2611 127.187 94.8211 127.187ZM105.04 127.295V133.883H103.948V132.335C103.78 132.871 103.48 133.283 103.048 133.571C102.624 133.851 102.128 133.991 101.56 133.991C100.8 133.991 100.184 133.747 99.712 133.259C99.24 132.763 99.004 132.055 99.004 131.135V127.295H100.096V131.027C100.096 131.683 100.264 132.191 100.6 132.551C100.936 132.903 101.392 133.079 101.968 133.079C102.568 133.079 103.048 132.887 103.408 132.503C103.768 132.111 103.948 131.543 103.948 130.799V127.295H105.04ZM110.054 132.923V133.883H109.238C108.566 133.883 108.062 133.723 107.726 133.403C107.398 133.083 107.234 132.547 107.234 131.795V128.243H106.25V127.295H107.234V125.651H108.338V127.295H110.042V128.243H108.338V131.819C108.338 132.243 108.414 132.535 108.566 132.695C108.726 132.847 108.998 132.923 109.382 132.923H110.054ZM117.566 130.223C117.566 130.455 117.55 130.655 117.518 130.823H112.25C112.274 131.575 112.486 132.139 112.886 132.515C113.294 132.891 113.79 133.079 114.374 133.079C114.902 133.079 115.342 132.947 115.694 132.683C116.054 132.411 116.274 132.051 116.354 131.603H117.518C117.438 132.059 117.258 132.467 116.978 132.827C116.706 133.187 116.35 133.467 115.91 133.667C115.47 133.867 114.974 133.967 114.422 133.967C113.79 133.967 113.23 133.831 112.742 133.559C112.254 133.287 111.87 132.899 111.59 132.395C111.318 131.883 111.182 131.283 111.182 130.595C111.182 129.907 111.318 129.307 111.59 128.795C111.87 128.283 112.254 127.891 112.742 127.619C113.23 127.347 113.79 127.211 114.422 127.211C115.062 127.211 115.618 127.347 116.09 127.619C116.57 127.891 116.934 128.255 117.182 128.711C117.438 129.167 117.566 129.671 117.566 130.223ZM116.462 130.295C116.486 129.807 116.406 129.399 116.222 129.071C116.038 128.743 115.786 128.499 115.466 128.339C115.146 128.179 114.798 128.099 114.422 128.099C113.822 128.099 113.318 128.287 112.91 128.663C112.502 129.031 112.282 129.575 112.25 130.295H116.462ZM121.178 127.211C121.922 127.211 122.518 127.407 122.966 127.799C123.422 128.183 123.698 128.703 123.794 129.359H122.75C122.702 128.967 122.538 128.647 122.258 128.399C121.986 128.143 121.618 128.015 121.154 128.015C120.762 128.015 120.454 128.111 120.23 128.303C120.014 128.487 119.906 128.739 119.906 129.059C119.906 129.299 119.978 129.495 120.122 129.647C120.274 129.791 120.458 129.903 120.674 129.983C120.898 130.055 121.202 130.135 121.586 130.223C122.074 130.335 122.466 130.451 122.762 130.571C123.066 130.683 123.322 130.867 123.53 131.123C123.746 131.379 123.854 131.723 123.854 132.155C123.854 132.691 123.65 133.127 123.242 133.463C122.842 133.799 122.306 133.967 121.634 133.967C120.85 133.967 120.21 133.779 119.714 133.403C119.218 133.027 118.926 132.503 118.838 131.831H119.894C119.934 132.231 120.106 132.555 120.41 132.803C120.722 133.051 121.13 133.175 121.634 133.175C122.01 133.175 122.302 133.079 122.51 132.887C122.726 132.695 122.834 132.443 122.834 132.131C122.834 131.875 122.758 131.671 122.606 131.519C122.454 131.367 122.266 131.251 122.042 131.171C121.818 131.091 121.51 131.007 121.118 130.919C120.63 130.807 120.238 130.695 119.942 130.583C119.654 130.471 119.406 130.295 119.198 130.055C118.998 129.807 118.898 129.475 118.898 129.059C118.898 128.507 119.102 128.063 119.51 127.727C119.918 127.383 120.474 127.211 121.178 127.211ZM126.238 132.599V133.883H124.918V132.599H126.238Z" fill="white" fill-opacity="0.7"/>
<path fill-rule="evenodd" clip-rule="evenodd" d="M92.4277 28.8826C92.8477 28.8826 93.1887 29.217 93.1887 29.6298C93.1887 30.0417 92.8487 30.3761 92.4277 30.3761L90.7987 30.3771C89.4467 30.379 88.3467 31.4587 88.3467 32.7854V34.6446C88.3467 35.0565 88.0047 35.3918 87.5847 35.3918C87.1647 35.3918 86.8237 35.0565 86.8237 34.6446V32.7854C86.8237 30.6359 88.6067 28.8856 90.7977 28.8836L92.4267 28.8826H92.4277ZM99.6006 28.8829H101.194C103.391 28.8829 105.177 30.6343 105.177 32.7886V34.6449C105.177 35.0568 104.837 35.3921 104.416 35.3921C103.996 35.3921 103.655 35.0568 103.655 34.6449V32.7886C103.655 31.458 102.551 30.3754 101.194 30.3754H99.6006C99.1806 30.3754 98.8396 30.042 98.8396 29.6301C98.8396 29.2173 99.1806 28.8829 99.6006 28.8829ZM98.7625 32.6253H93.2385C91.9745 32.638 90.9585 33.651 90.9695 34.8914V36.1368C90.9725 36.2819 91.0915 36.4006 91.2395 36.4055H100.76C100.908 36.4016 101.028 36.2829 101.032 36.1368V34.8914C101.034 34.2923 100.797 33.7167 100.372 33.2882C99.9485 32.8636 99.3675 32.6253 98.7625 32.6253ZM85.762 37.9239H106.239C106.659 37.9239 107 38.2582 107 38.6711C107 39.0829 106.659 39.4163 106.239 39.4163H105.177V42.9759C105.177 45.1313 103.39 46.8826 101.194 46.8826H99.601C99.18 46.8826 98.839 46.5482 98.839 46.1354C98.839 45.7236 99.18 45.3892 99.601 45.3892H101.194C102.551 45.3892 103.655 44.3076 103.655 42.9759V39.4163H101.032V40.4077C101.042 41.6482 100.027 42.6621 98.762 42.6739H93.238C91.974 42.6621 90.959 41.6482 90.969 40.4077V39.4163H88.346V42.9798C88.346 44.3066 89.447 45.3862 90.8 45.3882L92.428 45.3892C92.848 45.3892 93.189 45.7236 93.189 46.1354C93.188 46.5482 92.848 46.8826 92.427 46.8826L90.798 46.8816C88.607 46.8797 86.823 45.1293 86.823 42.9798V39.4163H85.762C85.342 39.4163 85 39.0829 85 38.6711C85 38.2582 85.342 37.9239 85.762 37.9239Z" fill="#00F6FF"/>
<defs>
<filter id="filter0_b_1_323" x="-10" y="-9.11738" width="211" height="178" filterUnits="userSpaceOnUse" color-interpolation-filters="sRGB">
<feFlood flood-opacity="0" result="BackgroundImageFix"/>
<feGaussianBlur in="BackgroundImageFix" stdDeviation="5"/>
<feComposite in2="SourceAlpha" operator="in" result="effect1_backgroundBlur_1_323"/>
<feBlend mode="normal" in="SourceGraphic" in2="effect1_backgroundBlur_1_323" result="shape"/>
</filter>
<linearGradient id="paint0_linear_1_323" x1="-708" y1="-446.117" x2="184.238" y2="215.008" gradientUnits="userSpaceOnUse">
<stop offset="0.161458" stop-color="white"/>
<stop offset="0.578125" stop-color="#6D6D6D"/>
<stop offset="0.932292" stop-color="#11101D"/>
</linearGradient>
</defs>
</svg>
