<svg width="140" height="33" viewBox="0 0 140 33" fill="none" xmlns="http://www.w3.org/2000/svg">
<path d="M0.199219 2.19217H9.21859C14.9744 2.19217 19.7214 5.51514 19.7214 13.1105V14.7126C19.7214 22.3673 15.2711 25.809 9.3966 25.809H0.199219V2.19217ZM5.24295 6.46456V21.4773H9.09991C12.3635 21.4773 14.559 19.3411 14.559 14.594V13.3479C14.559 8.60076 12.2448 6.46456 8.9219 6.46456H5.24295ZM22.3916 6.70192H26.4266L27.0793 11.1523C27.8507 8.12605 29.8089 6.5239 33.3691 6.5239H34.6152V11.627H32.5384C28.4441 11.627 27.4353 13.0512 27.4353 17.0862V25.8683H22.451V6.70192H22.3916ZM35.624 16.6708V16.1368C35.624 9.7282 39.7183 6.22721 45.2961 6.22721C50.9925 6.22721 54.9682 9.7282 54.9682 16.1368V16.6708C54.9682 22.9607 51.1112 26.343 45.2961 26.343C39.1249 26.2837 35.624 22.9607 35.624 16.6708ZM49.8651 16.6115V16.1368C49.8651 12.5765 48.0849 10.4403 45.2367 10.4403C42.4478 10.4403 40.6084 12.3984 40.6084 16.1368V16.6115C40.6084 20.0531 42.3885 22.0113 45.2367 22.0113C48.0849 21.952 49.8651 20.0531 49.8651 16.6115ZM57.579 6.70192H61.7327L62.2074 10.3216C63.2161 7.88869 65.3523 6.22721 68.4972 6.22721C73.3629 6.22721 76.5672 9.7282 76.5672 16.1961V16.7302C76.5672 23.0201 73.0069 26.343 68.4972 26.343C65.471 26.343 63.3941 24.9783 62.3854 22.7827V32.4549H57.5197L57.579 6.70192ZM71.5234 16.6115V16.1961C71.5234 12.3984 69.5653 10.4996 66.9544 10.4996C64.1655 10.4996 62.3261 12.6358 62.3261 16.1961V16.5522C62.3261 19.9345 64.1062 22.0707 66.8951 22.0707C69.7433 22.0113 71.5234 20.1718 71.5234 16.6115ZM83.9251 22.308L83.5097 25.809H79.2374V0.293335H84.1031V10.0842C85.1712 7.592 87.3073 6.22721 90.3336 6.22721C94.9026 6.28655 98.2849 9.4315 98.2849 15.7807V16.3741C98.2849 22.7234 95.0806 26.343 90.2149 26.343C87.0107 26.2837 84.9338 24.8002 83.9251 22.308ZM93.1818 16.3741V15.8994C93.1818 12.3984 91.283 10.4403 88.6128 10.4403C85.8832 10.4403 83.9844 12.6358 83.9844 15.9588V16.3741C83.9844 19.9345 85.8239 22.0113 88.5534 22.0113C91.461 22.0113 93.1818 20.1718 93.1818 16.3741ZM100.421 16.6708V16.1368C100.421 9.7282 104.515 6.22721 110.093 6.22721C115.79 6.22721 119.765 9.7282 119.765 16.1368V16.6708C119.765 22.9607 115.849 26.343 110.093 26.343C103.922 26.2837 100.421 22.9607 100.421 16.6708ZM114.721 16.6115V16.1368C114.721 12.5765 112.941 10.4403 110.093 10.4403C107.304 10.4403 105.465 12.3984 105.465 16.1368V16.6115C105.465 20.0531 107.245 22.0113 110.093 22.0113C112.941 21.952 114.721 20.0531 114.721 16.6115ZM126.292 15.8994L119.587 6.70192H125.343L129.2 12.4578L133.116 6.70192H138.813L131.989 15.8401L139.169 25.809H133.532L129.141 19.4597L124.868 25.809H118.994L126.292 15.8994Z" fill="#424147"/>
</svg>
