<svg width="527" height="364" viewBox="0 0 527 364" fill="none" xmlns="http://www.w3.org/2000/svg">
<g filter="url(#filter0_d_1_254)">
<rect x="-2.05613e-08" y="0.344961" width="177.31" height="283.558" rx="13.4535" transform="matrix(0.866025 0.5 -0.866025 0.5 309.873 57.1725)" fill="url(#paint0_linear_1_254)" stroke="url(#paint1_linear_1_254)" stroke-width="0.689923"/>
<g opacity="0.9">
<rect opacity="0.75" x="4.47035e-08" y="-0.25" width="19.2897" height="19.2897" rx="9.64486" transform="matrix(-0.866025 -0.5 0.866026 -0.5 218.562 273.496)" stroke="url(#paint2_linear_1_254)" stroke-width="0.5"/>
<rect opacity="0.7" x="4.47035e-08" y="-0.25" width="19.2897" height="19.2897" rx="9.64486" transform="matrix(-0.866025 -0.5 0.866026 -0.5 208.216 267.522)" stroke="url(#paint3_linear_1_254)" stroke-width="0.5"/>
</g>
<g filter="url(#filter1_d_1_254)">
<path d="M113.587 191.924L107.263 194.118L106.26 193.539L109.106 190.662L104.123 192.305L103.119 191.726L106.919 188.075L107.815 188.592L104.575 191.473L109.802 189.739L110.705 190.26L107.701 193.278L112.691 191.407L113.587 191.924ZM114.09 196.793L111.953 195.559L110.469 195.969L109.594 195.464L116.442 193.663L117.381 194.206L114.255 198.155L113.38 197.65L114.09 196.793ZM114.491 196.296L116.018 194.446L112.814 195.327L114.491 196.296ZM119.723 198.356L119.393 201.121L118.396 200.546L118.74 198.037L116.396 199.391L115.579 198.919L120.64 195.997L121.458 196.468L119.142 197.806L123.465 197.628L124.455 198.199L119.723 198.356ZM127.793 204.415C127.544 204.558 127.253 204.657 126.918 204.713C126.588 204.765 126.237 204.758 125.864 204.692C125.491 204.626 125.128 204.49 124.774 204.286C124.43 204.088 124.182 203.875 124.029 203.649C123.881 203.42 123.835 203.195 123.892 202.974C123.95 202.753 124.11 202.553 124.373 202.374L125.248 202.879C125.052 203.02 124.956 203.182 124.961 203.367C124.97 203.555 125.114 203.729 125.391 203.889C125.64 204.032 125.898 204.104 126.165 204.104C126.438 204.107 126.679 204.048 126.889 203.926C127.071 203.821 127.169 203.707 127.183 203.582C127.203 203.456 127.172 203.33 127.09 203.206C127.009 203.082 126.882 202.92 126.71 202.721C126.495 202.481 126.337 202.274 126.237 202.101C126.141 201.929 126.12 201.749 126.173 201.558C126.225 201.368 126.407 201.183 126.717 201.004C126.99 200.846 127.296 200.747 127.635 200.706C127.975 200.664 128.323 200.683 128.682 200.763C129.045 200.841 129.389 200.973 129.714 201.161C130.231 201.459 130.515 201.767 130.568 202.084C130.625 202.404 130.474 202.692 130.116 202.949L129.234 202.44C129.392 202.31 129.463 202.164 129.449 202.001C129.444 201.838 129.315 201.684 129.062 201.538C128.833 201.405 128.589 201.333 128.331 201.322C128.077 201.309 127.841 201.365 127.621 201.492C127.449 201.591 127.353 201.702 127.334 201.823C127.32 201.942 127.351 202.062 127.427 202.183C127.513 202.305 127.64 202.463 127.807 202.659C128.027 202.902 128.185 203.112 128.28 203.289C128.386 203.465 128.41 203.65 128.352 203.843C128.3 204.039 128.113 204.23 127.793 204.415ZM133.824 203.608L130.819 205.342C130.37 205.602 130.134 205.851 130.11 206.092C130.091 206.334 130.26 206.559 130.619 206.766C130.972 206.971 131.357 207.066 131.773 207.052C132.194 207.041 132.629 206.906 133.078 206.646L136.082 204.912L136.9 205.384L133.895 207.118C133.202 207.518 132.497 207.718 131.78 207.718C131.068 207.716 130.418 207.545 129.83 207.205C129.247 206.868 128.955 206.496 128.955 206.087C128.96 205.676 129.309 205.271 130.002 204.87L133.006 203.136L133.824 203.608ZM137.601 211.634L136.784 211.162L138.06 207.586L134.325 209.742L133.507 209.27L138.562 206.352L139.38 206.824L138.089 210.409L141.839 208.244L142.656 208.716L137.601 211.634ZM143.423 213.729L141.287 212.495L139.803 212.905L138.928 212.4L145.775 210.599L146.714 211.141L143.588 215.09L142.713 214.585L143.423 213.729ZM143.825 213.232L145.352 211.381L142.147 212.263L143.825 213.232ZM147.572 217.391L148.332 215.495L147.751 215.159L145.729 216.327L144.912 215.855L149.974 212.932L151.759 213.963C152.338 214.297 152.634 214.631 152.648 214.965C152.667 215.301 152.445 215.604 151.982 215.871C151.585 216.1 151.147 216.223 150.669 216.24C150.196 216.259 149.713 216.168 149.221 215.967L148.49 217.92L147.572 217.391ZM148.332 214.824L149.236 215.346C149.895 215.726 150.517 215.749 151.1 215.412C151.377 215.252 151.511 215.081 151.501 214.899C151.501 214.716 151.331 214.527 150.992 214.331L150.089 213.81L148.332 214.824ZM155.793 216.292L150.732 219.215L149.914 218.743L154.976 215.82L155.793 216.292Z" fill="white"/>
</g>
<g filter="url(#filter2_d_1_254)">
<path d="M92.6816 196.415C92.0044 196.806 91.5882 197.175 91.4328 197.522C91.2775 197.869 91.4746 198.202 92.0243 198.519C92.574 198.836 93.1496 198.95 93.7511 198.86C94.3565 198.773 94.9978 198.534 95.675 198.143C96.3442 197.757 96.7545 197.389 96.9058 197.039C97.0612 196.692 96.864 196.36 96.3143 196.042C95.7646 195.725 95.189 195.611 94.5876 195.701C93.9901 195.788 93.3547 196.026 92.6816 196.415ZM95.1373 197.832C94.7907 198.033 94.474 198.186 94.1872 198.291C93.9084 198.397 93.6296 198.45 93.3508 198.45C93.0719 198.45 92.8011 198.374 92.5382 198.222C92.2793 198.073 92.1498 197.918 92.1498 197.757C92.1498 197.596 92.2394 197.433 92.4187 197.27C92.6059 197.107 92.8728 196.925 93.2193 196.725C93.5619 196.527 93.8726 196.376 94.1514 196.27C94.4342 196.166 94.713 196.116 94.9879 196.118C95.2667 196.118 95.5356 196.193 95.7945 196.342C96.0574 196.494 96.1888 196.65 96.1888 196.811C96.1928 196.97 96.1032 197.13 95.92 197.291C95.7407 197.454 95.4798 197.635 95.1373 197.832ZM99.6857 199.355C99.9048 199.191 100.012 199.03 100.008 198.872C100.012 198.713 99.8928 198.564 99.6499 198.423C99.3113 198.228 98.9229 198.155 98.4847 198.206C98.0506 198.259 97.5487 198.45 96.9791 198.779L96.764 198.91C97.0627 198.806 97.3893 198.776 97.7439 198.82C98.1024 198.861 98.427 198.966 98.7178 199.134C99.136 199.375 99.3372 199.636 99.3212 199.917C99.3093 200.2 99.0783 200.471 98.6281 200.731C98.3652 200.883 98.0745 200.991 97.7558 201.055C97.4411 201.117 97.1125 201.123 96.7699 201.073C96.4354 201.022 96.1107 200.906 95.796 200.724C95.1946 200.377 94.9695 200.028 95.1209 199.679C95.2762 199.332 95.6785 198.971 96.3278 198.596C97.0767 198.163 97.7578 197.908 98.3712 197.83C98.9926 197.752 99.5762 197.87 100.122 198.185C100.524 198.418 100.719 198.661 100.707 198.917C100.699 199.174 100.532 199.42 100.206 199.655L99.6857 199.355ZM96.2681 199.265C95.9773 199.433 95.816 199.623 95.7841 199.834C95.7602 200.046 95.9175 200.249 96.2561 200.445C96.5349 200.606 96.8397 200.687 97.1703 200.69C97.5049 200.69 97.8215 200.603 98.1203 200.431C98.4429 200.245 98.6042 200.055 98.6042 199.862C98.6082 199.666 98.4628 199.483 98.1681 199.313C98.0008 199.217 97.8076 199.144 97.5885 199.096C97.3694 199.048 97.1424 199.036 96.9074 199.061C96.6763 199.084 96.4632 199.152 96.2681 199.265ZM105.422 199.734L97.135 202.629L96.6092 202.325L104.89 199.427L105.422 199.734ZM100.487 202.901C101.618 203.03 102.61 203.083 103.463 203.06C104.319 203.035 104.94 202.911 105.327 202.687C105.566 202.549 105.695 202.403 105.715 202.249C105.743 202.095 105.622 201.94 105.351 201.784C105.072 201.623 104.771 201.553 104.449 201.573C104.13 201.592 103.807 201.686 103.481 201.856L102.943 201.546C103.441 201.29 103.947 201.166 104.46 201.173C104.978 201.178 105.444 201.3 105.859 201.539C106.253 201.766 106.46 202.008 106.48 202.263C106.5 202.518 106.317 202.758 105.93 202.981C105.612 203.165 105.183 203.292 104.646 203.364C104.116 203.435 103.554 203.462 102.961 203.446C102.375 203.43 101.822 203.384 101.3 203.308L103.439 204.543L102.991 204.802L100.093 203.129L100.487 202.901ZM105.682 203.92C105.005 204.311 104.588 204.68 104.433 205.028C104.278 205.375 104.475 205.707 105.024 206.025C105.574 206.342 106.15 206.456 106.751 206.366C107.357 206.279 107.998 206.04 108.675 205.649C109.344 205.262 109.755 204.894 109.906 204.545C110.061 204.197 109.864 203.865 109.314 203.548C108.765 203.23 108.189 203.117 107.588 203.206C106.99 203.294 106.355 203.532 105.682 203.92ZM108.137 205.338C107.791 205.538 107.474 205.691 107.187 205.797C106.909 205.903 106.63 205.956 106.351 205.956C106.072 205.956 105.801 205.88 105.538 205.728C105.279 205.578 105.15 205.423 105.15 205.262C105.15 205.101 105.24 204.939 105.419 204.776C105.606 204.613 105.873 204.431 106.219 204.231C106.562 204.033 106.873 203.881 107.151 203.775C107.434 203.672 107.713 203.621 107.988 203.624C108.267 203.624 108.536 203.698 108.795 203.848C109.057 204 109.189 204.156 109.189 204.317C109.193 204.476 109.103 204.636 108.92 204.797C108.741 204.96 108.48 205.14 108.137 205.338ZM107.547 206.978C108.679 207.106 109.67 207.159 110.523 207.136C111.379 207.111 112.001 206.987 112.387 206.764C112.626 206.626 112.755 206.48 112.775 206.326C112.803 206.171 112.682 206.016 112.411 205.86C112.132 205.699 111.831 205.629 111.509 205.649C111.19 205.668 110.867 205.762 110.541 205.932L110.003 205.622C110.501 205.367 111.007 205.242 111.521 205.249C112.039 205.254 112.505 205.376 112.919 205.615C113.313 205.843 113.52 206.084 113.54 206.339C113.56 206.595 113.377 206.834 112.991 207.057C112.672 207.241 112.244 207.369 111.706 207.44C111.176 207.511 110.614 207.539 110.021 207.523C109.435 207.506 108.882 207.46 108.36 207.385L110.499 208.62L110.051 208.878L107.153 207.205L107.547 206.978ZM111.421 208.579L111.875 208.317L116.859 207.938L117.444 208.276L114.642 209.894L115.263 210.253L114.791 210.525L114.17 210.166L113.202 210.725L112.652 210.408L113.62 209.849L111.421 208.579ZM116.267 208.362L112.467 208.638L114.128 209.597L116.267 208.362Z" fill="white" fill-opacity="0.7" shape-rendering="crispEdges"/>
</g>
<rect x="-2.98023e-08" y="0.5" width="23.8605" height="18.0421" rx="1.5" transform="matrix(0.866025 0.5 -0.866025 0.5 211.039 190.822)" stroke="white"/>
<g style="mix-blend-mode:overlay">
<path d="M199.403 210.599C198.205 210.439 195.741 209.763 195.47 208.333M197.777 213.164C195.919 212.889 191.966 211.726 191.018 209.269M196.559 215.566C194.084 215.174 188.714 213.529 187.034 210.078M194.826 217.91C191.811 217.499 185.218 215.557 182.966 211.076" stroke="white" stroke-width="1.37985" stroke-linecap="round" stroke-linejoin="round"/>
</g>
</g>
<defs>
<filter id="filter0_d_1_254" x="0.408203" y="0.0415039" width="526.318" height="363.041" filterUnits="userSpaceOnUse" color-interpolation-filters="sRGB">
<feFlood flood-opacity="0" result="BackgroundImageFix"/>
<feColorMatrix in="SourceAlpha" type="matrix" values="0 0 0 0 0 0 0 0 0 0 0 0 0 0 0 0 0 0 127 0" result="hardAlpha"/>
<feOffset dy="9"/>
<feGaussianBlur stdDeviation="35"/>
<feComposite in2="hardAlpha" operator="out"/>
<feColorMatrix type="matrix" values="0 0 0 0 0 0 0 0 0 0 0 0 0 0 0 0 0 0 0.25 0"/>
<feBlend mode="normal" in2="BackgroundImageFix" result="effect1_dropShadow_1_254"/>
<feBlend mode="normal" in="SourceGraphic" in2="effect1_dropShadow_1_254" result="shape"/>
</filter>
<filter id="filter1_d_1_254" x="100.807" y="188.037" width="56.0509" height="33.2063" filterUnits="userSpaceOnUse" color-interpolation-filters="sRGB">
<feFlood flood-opacity="0" result="BackgroundImageFix"/>
<feColorMatrix in="SourceAlpha" type="matrix" values="0 0 0 0 0 0 0 0 0 0 0 0 0 0 0 0 0 0 127 0" result="hardAlpha"/>
<feOffset dy="1"/>
<feGaussianBlur stdDeviation="0.5"/>
<feComposite in2="hardAlpha" operator="out"/>
<feColorMatrix type="matrix" values="0 0 0 0 0 0 0 0 0 0 0 0 0 0 0 0 0 0 0.15 0"/>
<feBlend mode="normal" in2="BackgroundImageFix" result="effect1_dropShadow_1_254"/>
<feBlend mode="normal" in="SourceGraphic" in2="effect1_dropShadow_1_254" result="shape"/>
</filter>
<filter id="filter2_d_1_254" x="88.5269" y="194.397" width="31.9248" height="19.2771" filterUnits="userSpaceOnUse" color-interpolation-filters="sRGB">
<feFlood flood-opacity="0" result="BackgroundImageFix"/>
<feColorMatrix in="SourceAlpha" type="matrix" values="0 0 0 0 0 0 0 0 0 0 0 0 0 0 0 0 0 0 127 0" result="hardAlpha"/>
<feOffset dy="1"/>
<feGaussianBlur stdDeviation="0.5"/>
<feComposite in2="hardAlpha" operator="out"/>
<feColorMatrix type="matrix" values="0 0 0 0 0 0 0 0 0 0 0 0 0 0 0 0 0 0 0.15 0"/>
<feBlend mode="normal" in2="BackgroundImageFix" result="effect1_dropShadow_1_254"/>
<feBlend mode="normal" in="SourceGraphic" in2="effect1_dropShadow_1_254" result="shape"/>
</filter>
<linearGradient id="paint0_linear_1_254" x1="0" y1="0" x2="178" y2="284.248" gradientUnits="userSpaceOnUse">
<stop stop-color="white" stop-opacity="0.4"/>
<stop offset="1" stop-color="white" stop-opacity="0.1"/>
</linearGradient>
<linearGradient id="paint1_linear_1_254" x1="-1.21225e-06" y1="9.5" x2="167.5" y2="284" gradientUnits="userSpaceOnUse">
<stop stop-color="white"/>
<stop offset="1" stop-color="white" stop-opacity="0.1"/>
</linearGradient>
<linearGradient id="paint2_linear_1_254" x1="9.89486" y1="0" x2="9.89486" y2="19.7897" gradientUnits="userSpaceOnUse">
<stop stop-color="white"/>
<stop offset="0.479167" stop-opacity="0.5"/>
<stop offset="0.9375" stop-color="white"/>
</linearGradient>
<linearGradient id="paint3_linear_1_254" x1="9.89486" y1="0" x2="9.89486" y2="19.7897" gradientUnits="userSpaceOnUse">
<stop stop-color="white"/>
<stop offset="0.479167" stop-opacity="0.5"/>
<stop offset="0.9375" stop-color="white"/>
</linearGradient>
</defs>
</svg>
