<svg width="10" height="10" viewBox="0 0 10 10" fill="none" xmlns="http://www.w3.org/2000/svg">
<path fill-rule="evenodd" clip-rule="evenodd" d="M2.3904 2.40123C2.1704 2.62123 1.88507 2.73989 1.56907 2.73989C1.27307 2.73989 0.982405 2.61856 0.749071 2.39989C0.527738 2.17989 0.402405 1.87856 0.402405 1.57323C0.402405 1.28256 0.525071 0.983894 0.741071 0.753227C0.859738 0.633227 1.00107 0.542561 1.1424 0.494561C1.54507 0.310561 2.07974 0.418561 2.39707 0.751894C2.5104 0.865227 2.59707 0.989227 2.6544 1.11856C2.71707 1.25723 2.74907 1.41456 2.74907 1.57323C2.74907 1.89056 2.6224 2.18523 2.3904 2.40123ZM9.254 0.746427C8.79934 0.293094 8.05934 0.293094 7.60467 0.746427L0.751337 7.59976C0.296671 8.05443 0.296671 8.79443 0.751337 9.25043C0.972671 9.47043 1.26467 9.59176 1.57667 9.59176C1.88867 9.59176 2.18067 9.47043 2.40067 9.25043L9.254 2.39709C9.70867 1.94109 9.70867 1.20243 9.254 0.746427ZM8.8744 7.35189C8.4424 7.17056 7.9304 7.26923 7.58907 7.61056C7.5184 7.69323 7.4184 7.82123 7.3504 7.97189C7.2784 8.13456 7.26907 8.30923 7.26907 8.42656C7.26907 8.54389 7.2784 8.71723 7.3504 8.87989C7.41707 9.02923 7.49707 9.15056 7.6024 9.25589C7.84374 9.47989 8.12374 9.59323 8.43574 9.59323C8.73174 9.59323 9.0224 9.47323 9.26107 9.25056C9.47307 9.03856 9.58907 8.74523 9.58907 8.42656C9.58907 8.10656 9.47307 7.81456 9.25974 7.60123C9.1424 7.48523 9.00107 7.39456 8.8744 7.35189Z" fill="#00F6FF"/>
</svg>
